<svg id="Layer_1" data-name="Layer 1" xmlns="http://www.w3.org/2000/svg" xmlns:xlink="http://www.w3.org/1999/xlink" viewBox="0 0 832.46 391.25"><defs><style>.cls-1{fill:url(#linear-gradient);}</style><linearGradient id="linear-gradient" y1="197.63" x2="832.46" y2="197.63" gradientTransform="matrix(1, 0, 0, -1, 0, 393.25)" gradientUnits="userSpaceOnUse"><stop offset="0" stop-color="#c69ff0"/><stop offset="0.07" stop-color="#f699d8"/><stop offset="0.16" stop-color="#f9f7d0"/><stop offset="0.26" stop-color="#f49dd9"/><stop offset="0.42" stop-color="#c396f3"/><stop offset="0.67" stop-color="#bcd7f8"/><stop offset="0.77" stop-color="#afe8fd"/><stop offset="0.88" stop-color="#c7a5ef"/><stop offset="1" stop-color="#f699d8"/></linearGradient></defs><path class="cls-1" d="M775.22,57.29a198.09,198.09,0,0,0-34.94-27.8A190.88,190.88,0,0,0,696.7,9.3a195.92,195.92,0,0,0-198.08,48l-62.7,62.63,55.89,55.88,62.69-62.7a116.45,116.45,0,0,1,198.29,69.33c.18,4.36.29,8.73.29,13.12s0,8.73-.29,13.06A116.48,116.48,0,0,1,554.5,278l-69.26-69.18-13.16-13.16h0L333.78,57.33a196,196,0,0,0-198.11-48A192.77,192.77,0,0,0,92.12,29.53a198.45,198.45,0,0,0-34.94,27.8c-76.24,76.45-76.24,200.18,0,276.63a198.45,198.45,0,0,0,34.94,27.8A191,191,0,0,0,135.71,382a195.88,195.88,0,0,0,198.07-48l3.25-3.24,31.36,31.36V243.29h-119L281,274.84l-3.24,3.24a116.46,116.46,0,0,1-198.3-69.29c0-4.37-.28-8.76-.28-13.16s0-8.76.28-13.13a116.5,116.5,0,0,1,198.3-69.29l69.4,69.26,13.16,13.16h0l138.34,138.3A194.46,194.46,0,0,0,637,391.22a196.76,196.76,0,0,0,59.81-9.31,191.71,191.71,0,0,0,43.55-20.19,198,198,0,0,0,34.94-27.79C851.54,257.45,851.49,133.71,775.22,57.29Z"/></svg>