<?xml version="1.0" encoding="utf-8"?>
<!-- Generator: Adobe Illustrator 26.3.1, SVG Export Plug-In . SVG Version: 6.00 Build 0)  -->
<svg version="1.1" id="Layer_1" xmlns="http://www.w3.org/2000/svg" xmlns:xlink="http://www.w3.org/1999/xlink" x="0px" y="0px"
	 viewBox="0 0 1572 381.3" style="enable-background:new 0 0 1572 381.3;" xml:space="preserve">
<style type="text/css">
	.st0{fill:url(#SVGID_1_);}
	.st1{fill:#FFFFFF;}
	.st2{fill:url(#SVGID_00000047033814843444325990000017535605873233945739_);}
	.st3{fill:url(#SVGID_00000101811770124041311150000006068303953614077623_);}
	.st4{fill:url(#SVGID_00000142882937148522884900000009958497097148665010_);}
	.st5{fill:url(#SVGID_00000047741041592921833000000006528488962267351968_);}
</style>
<linearGradient id="SVGID_1_" gradientUnits="userSpaceOnUse" x1="57.8684" y1="1088.0551" x2="546.9551" y2="1088.0551" gradientTransform="matrix(1 0 0 1 0 -898)">
	<stop  offset="0" style="stop-color:#A000D6"/>
	<stop  offset="1" style="stop-color:#5379FE"/>
</linearGradient>
<path class="st0" d="M513.2,109c-6.2-6.2-13.1-11.7-20.6-16.3c-8-5.1-16.6-9.1-25.6-11.9c-41-13.2-85.9-2.3-116.3,28.2l-36.9,36.9
	l32.8,32.8l36.8-36.8c26.7-26.8,70-26.9,96.8-0.3c11.1,11,18,25.4,19.7,40.9c0,2.5,0.2,5.1,0.2,7.6c0,2.5,0,5.1-0.2,7.6
	c-4.2,37.6-38.1,64.6-75.7,60.4c-15.4-1.7-29.8-8.7-40.8-19.7l-40.7-40.7l-7.6-7.8l0,0l-81.4-81.4c-30.4-30.4-75.3-41.3-116.2-28.2
	c-17.4,5.6-33.3,15.2-46.2,28.2c-44.7,44.9-44.7,117.6,0,162.5c6.2,6.2,13.1,11.7,20.6,16.3c8,5.1,16.6,9.1,25.6,11.9
	c41,13.2,85.9,2.3,116.3-28.2l1.9-1.9l18.4,18.4v-69.9h-69.9l18.6,18.6l-1.9,1.9c-26.7,26.8-70,26.9-96.8,0.3
	c-11.1-11-18-25.4-19.7-40.9c0-2.5-0.2-5.1-0.2-7.8s0-5.1,0.2-7.6c4.2-37.6,38.1-64.6,75.7-60.4c15.4,1.7,29.8,8.7,40.8,19.7
	l40.9,40.7l7.6,7.8l0,0l81.4,81.4c21.6,21.6,50.8,33.7,81.3,33.7c30.5,0,59.8-12.1,81.4-33.7C558.2,226.4,558.1,153.8,513.2,109z"/>
<path class="st1" d="M582.7,145.5h108v26.1l-58.8,59.9h62.5V262h-116v-29l55.9-57.1h-51.5L582.7,145.5z"/>
<path class="st1" d="M712.8,101.2h45.7v83.1l33.4-38.7h55l-41.7,40.8l44.2,75.7h-50.4l-23.6-46.7l-16.8,16.4v30.3h-45.7V101.2z"/>
<linearGradient id="SVGID_00000041978312389491168930000009062394511171888292_" gradientUnits="userSpaceOnUse" x1="855.739" y1="403.0644" x2="1514.8521" y2="403.0644" gradientTransform="matrix(1 0 0 -1 0 584.6907)">
	<stop  offset="0" style="stop-color:#A000D6"/>
	<stop  offset="1" style="stop-color:#5379FE"/>
</linearGradient>
<path style="fill:url(#SVGID_00000041978312389491168930000009062394511171888292_);" d="M855.7,208.9l47.3-3
	c1,7.7,3.1,13.5,6.4,17.6c5.1,6.5,12.4,9.8,21.9,9.8c7.1,0,12.5-1.7,16.4-5c3.6-2.8,5.7-7.1,5.8-11.6c-0.1-4.4-2.2-8.4-5.6-11.1
	c-3.6-3.3-12.1-6.4-25.4-9.3c-21.8-4.9-37.3-11.4-46.6-19.5c-9.2-7.7-14.3-19.1-14-31.1c0-8.4,2.5-16.5,7.2-23.4
	c5.3-7.8,12.8-13.8,21.6-17.4c9.6-4.2,22.8-6.4,39.6-6.4c20.6,0,36.2,3.8,47,11.5c10.8,7.7,17.2,19.8,19.3,36.5l-46.9,2.8
	c-1.3-7.2-3.9-12.5-7.8-15.8c-4-3.3-9.5-4.9-16.5-4.9c-5.8,0-10.1,1.2-13.1,3.7c-2.8,2.1-4.4,5.4-4.4,8.9c0.1,2.7,1.4,5.3,3.6,6.9
	c2.4,2.1,7.9,4.1,16.7,5.9c21.7,4.7,37.3,9.4,46.6,14.2c8.4,3.9,15.5,10.1,20.5,17.8c4.3,7.2,6.5,15.5,6.4,23.8
	c0.1,10.1-2.9,20.1-8.5,28.5c-5.8,8.8-14.2,15.7-23.9,19.8c-10.3,4.5-23.2,6.7-38.8,6.7c-27.4,0-46.3-5.3-56.9-15.8
	C863.1,238.5,857.1,225.1,855.7,208.9z"/>
<linearGradient id="SVGID_00000113314058384887289450000013083087340502347658_" gradientUnits="userSpaceOnUse" x1="855.7813" y1="380.8828" x2="1514.873" y2="380.8828" gradientTransform="matrix(1 0 0 -1 0 584.6907)">
	<stop  offset="0" style="stop-color:#A000D6"/>
	<stop  offset="1" style="stop-color:#5379FE"/>
</linearGradient>
<path style="fill:url(#SVGID_00000113314058384887289450000013083087340502347658_);" d="M1010.7,145.5h43.2l18.7,73.4l23.6-73.4
	h40.4l24.7,73.6l18.7-73.6h42.9L1180,262h-39.7l-23.6-70.1l-22.8,70.1H1054L1010.7,145.5z"/>
<linearGradient id="SVGID_00000070836476604350021880000008884683957939148969_" gradientUnits="userSpaceOnUse" x1="855.7813" y1="380.8909" x2="1514.873" y2="380.8909" gradientTransform="matrix(1 0 0 -1 0 584.6907)">
	<stop  offset="0" style="stop-color:#A000D6"/>
	<stop  offset="1" style="stop-color:#5379FE"/>
</linearGradient>
<path style="fill:url(#SVGID_00000070836476604350021880000008884683957939148969_);" d="M1274.2,183.3l-42.7-4.5
	c1.1-6.3,3.5-12.3,7-17.6c3.5-4.7,8-8.5,13.1-11.1c5.3-2.7,11.1-4.4,16.9-5.3c7.7-1.3,15.5-1.9,23.3-1.9c10.8-0.2,21.6,0.6,32.3,2.3
	c7.5,1.2,14.5,4.4,20.3,9.4c4.2,3.8,7.3,8.6,9,14c2.1,5.5,3.2,11.4,3.3,17.3v51.5c-0.1,4.3,0.2,8.6,1,12.9c1.1,4.1,2.6,8.1,4.6,11.9
	h-42c-1.3-2.2-2.4-4.5-3.3-6.9c-0.7-2.4-1.2-4.9-1.5-7.4c-5,5.1-10.9,9.2-17.5,12.1c-8.8,3.4-18.1,5-27.5,4.9
	c-13.9,0-24.4-3.2-31.7-9.7c-7-5.9-11-14.7-10.8-23.8c-0.3-8,2.5-15.8,7.8-21.8c5.2-5.6,14.8-9.9,28.8-12.7
	c16.8-3.4,27.6-5.7,32.6-7.1c5.4-1.5,10.6-3.3,15.8-5.3c0-5.5-1.1-9.3-3.4-11.5c-2.3-2.2-6.4-3.3-12-3.3c-7.3,0-12.7,1.2-16.5,3.5
	C1278.2,174.8,1275.9,178.2,1274.2,183.3z M1312.9,206.8c-6.2,2.1-12.6,4.2-19.2,5.8c-9.1,2.4-14.8,4.8-17.2,7.1
	c-4.7,4.2-5,11.5-0.8,16.2c0.2,0.3,0.5,0.5,0.8,0.8c3.1,2.4,6.9,3.6,10.8,3.3c4.9,0,9.7-1.2,13.9-3.6c3.8-2,7-5.1,9.1-8.8
	c1.9-4.2,2.9-8.9,2.7-13.6L1312.9,206.8z"/>
<linearGradient id="SVGID_00000163071698682186501200000003701720524388331420_" gradientUnits="userSpaceOnUse" x1="855.7813" y1="359.995" x2="1514.873" y2="359.995" gradientTransform="matrix(1 0 0 -1 0 584.6907)">
	<stop  offset="0" style="stop-color:#A000D6"/>
	<stop  offset="1" style="stop-color:#5379FE"/>
</linearGradient>
<path style="fill:url(#SVGID_00000163071698682186501200000003701720524388331420_);" d="M1385.8,306.4V145.5h41.8v17.2
	c5.8-7.2,11.1-12.1,15.9-14.7c6.7-3.5,14.1-5.3,21.6-5.2c15.5,0,27.6,6,36.2,17.9s12.8,26.7,12.7,44.2c0,19.4-4.6,34.2-13.9,44.5
	c-8.9,10-21.8,15.6-35.2,15.3c-6.4,0.1-12.8-1.1-18.8-3.5c-5.7-2.4-10.9-5.9-15.2-10.4v55.6L1385.8,306.4z M1430.6,204.1
	c0,9.2,1.9,16,5.8,20.5c3.6,4.3,9,6.8,14.7,6.7c5.1,0.1,10-2.3,13.1-6.4c3.5-4.2,5.3-11.5,5.3-21.8c0-9.4-1.8-16.4-5.5-20.8
	c-3.2-4.2-8.1-6.6-13.4-6.6c-5.5-0.1-10.7,2.4-14.2,6.6C1432.5,186.9,1430.6,194.1,1430.6,204.1z"/>
</svg>
