<svg id="Layer_1" data-name="Layer 1" xmlns="http://www.w3.org/2000/svg" xmlns:xlink="http://www.w3.org/1999/xlink" viewBox="0 0 742 180"><defs><style>.cls-1{fill:url(#linear-gradient);}.cls-2{fill:#fff;}.cls-3{fill:url(#linear-gradient-2);}.cls-4{fill:url(#linear-gradient-3);}.cls-5{fill:url(#linear-gradient-4);}.cls-6{fill:url(#linear-gradient-5);}</style><linearGradient id="linear-gradient" x1="27.32" y1="92.35" x2="258.17" y2="92.35" gradientTransform="matrix(1, 0, 0, -1, 0, 182)" gradientUnits="userSpaceOnUse"><stop offset="0" stop-color="#c69ff0"/><stop offset="0.07" stop-color="#f699d8"/><stop offset="0.16" stop-color="#f9f7d0"/><stop offset="0.26" stop-color="#f49dd9"/><stop offset="0.42" stop-color="#c396f3"/><stop offset="0.67" stop-color="#bcd7f8"/><stop offset="0.77" stop-color="#afe8fd"/><stop offset="0.88" stop-color="#c7a5ef"/><stop offset="1" stop-color="#f699d8"/></linearGradient><linearGradient id="linear-gradient-2" x1="403.92" y1="85.73" x2="715.03" y2="85.73" gradientTransform="matrix(1, 0, 0, 1, 0, 0)" xlink:href="#linear-gradient"/><linearGradient id="linear-gradient-3" x1="403.94" y1="96.2" x2="715.04" y2="96.2" gradientTransform="matrix(1, 0, 0, 1, 0, 0)" xlink:href="#linear-gradient"/><linearGradient id="linear-gradient-4" x1="403.94" y1="96.2" x2="715.04" y2="96.2" gradientTransform="matrix(1, 0, 0, 1, 0, 0)" xlink:href="#linear-gradient"/><linearGradient id="linear-gradient-5" x1="403.94" y1="106.04" x2="715.04" y2="106.04" gradientTransform="matrix(1, 0, 0, 1, 0, 0)" xlink:href="#linear-gradient"/></defs><path class="cls-1" d="M242.24,51.45a55.67,55.67,0,0,0-9.7-7.7,49.27,49.27,0,0,0-12.1-5.6,54.1,54.1,0,0,0-54.9,13.3l-17.4,17.4,15.5,15.5L181,67a32.3,32.3,0,0,1,55,19.2c0,1.2.1,2.4.1,3.6s0,2.4-.1,3.6a32.32,32.32,0,0,1-55,19.2l-19.2-19.2-3.6-3.7h0l-38.4-38.4A54.2,54.2,0,0,0,64.94,38a54.27,54.27,0,0,0-21.8,13.3,54.38,54.38,0,0,0,0,76.7,55.67,55.67,0,0,0,9.7,7.7,49.27,49.27,0,0,0,12.1,5.6,54.1,54.1,0,0,0,54.9-13.3l.9-.9,8.7,8.7v-33h-33l8.8,8.8-.9.9a32.3,32.3,0,0,1-55-19.2c0-1.2-.1-2.4-.1-3.7s0-2.4.1-3.6a32.32,32.32,0,0,1,55-19.2L123.64,86l3.6,3.7h0l38.4,38.4A54.27,54.27,0,0,0,204,144a54.31,54.31,0,0,0,38.4-15.9A54.26,54.26,0,0,0,242.24,51.45Z"/><path class="cls-2" d="M275.05,68.69h51V81l-27.77,28.29h29.48v14.4H273V110l26.37-26.94h-24.3Z"/><path class="cls-2" d="M336.44,47.76H358V87l15.75-18.27H399.7L380,88l20.87,35.75H377.09l-11.15-22.06L358,109.41v14.3H336.44Z"/><path class="cls-3" d="M403.92,98.58l22.33-1.4c.49,3.63,1.47,6.39,3,8.29q3.62,4.62,10.36,4.61,5,0,7.74-2.35a7.05,7.05,0,0,0,2.72-5.47A6.94,6.94,0,0,0,447.44,97c-1.72-1.56-5.73-3-12-4.41q-15.44-3.46-22-9.22a18.54,18.54,0,0,1-6.63-14.66,19.86,19.86,0,0,1,3.4-11.06,22.46,22.46,0,0,1,10.2-8.19q6.81-3,18.68-3,14.56,0,22.2,5.42t9.09,17.22l-22.12,1.3q-.89-5.13-3.7-7.46c-1.89-1.56-4.49-2.33-7.8-2.33-2.73,0-4.78.57-6.17,1.73a5.33,5.33,0,0,0-2.07,4.22,4.24,4.24,0,0,0,1.71,3.27c1.11,1,3.73,1.93,7.88,2.8q15.38,3.32,22,6.71a23.13,23.13,0,0,1,9.69,8.41,21.39,21.39,0,0,1,3,11.25,24.11,24.11,0,0,1-4,13.47,25.25,25.25,0,0,1-11.29,9.35Q450.24,125,439.21,125q-19.38,0-26.84-7.46T403.92,98.58Z"/><path class="cls-4" d="M477.08,68.69h20.39l8.82,34.64,11.16-34.64h19.06l11.64,34.73L557,68.69h20.26l-20.27,55H538.25L527.1,90.6l-10.77,33.11H497.48Z"/><path class="cls-5" d="M601.43,86.51l-20.16-2.12a22.66,22.66,0,0,1,3.29-8.32,18.2,18.2,0,0,1,6.19-5.26,25.85,25.85,0,0,1,8-2.48,64.12,64.12,0,0,1,11-.89A87,87,0,0,1,625,68.51a19.44,19.44,0,0,1,9.58,4.43,15.39,15.39,0,0,1,4.25,6.6,23.8,23.8,0,0,1,1.56,8.16V112a29.26,29.26,0,0,0,.49,6.09,27.11,27.11,0,0,0,2.15,5.62H623.19a19.19,19.19,0,0,1-1.56-3.24,24.23,24.23,0,0,1-.72-3.49,27.15,27.15,0,0,1-8.24,5.69,34.31,34.31,0,0,1-13,2.29q-9.84,0-14.94-4.57a14.44,14.44,0,0,1-5.11-11.24,14.75,14.75,0,0,1,3.68-10.31q3.68-4,13.58-6,11.86-2.39,15.38-3.34A73.75,73.75,0,0,0,619.72,87c0-2.59-.54-4.41-1.61-5.44s-3-1.56-5.65-1.56c-3.45,0-6,.56-7.77,1.66C603.34,82.5,602.26,84.13,601.43,86.51ZM619.72,97.6c-2.91,1-5.93,2-9.07,2.74-4.29,1.14-7,2.27-8.14,3.37a5.4,5.4,0,0,0,0,8,7.36,7.36,0,0,0,5.1,1.58,13.13,13.13,0,0,0,6.56-1.71,10.37,10.37,0,0,0,4.3-4.17,14.09,14.09,0,0,0,1.27-6.4Z"/><path class="cls-6" d="M654.12,144.64V68.69h19.74v8.13q4.1-5.13,7.51-6.94a21.56,21.56,0,0,1,10.21-2.44q11,0,17.07,8.45t6,20.88q0,13.73-6.58,21A21.51,21.51,0,0,1,691.47,125a23.14,23.14,0,0,1-8.88-1.66,21.33,21.33,0,0,1-7.18-4.92v26.26Zm21.14-48.28q0,6.52,2.74,9.68a8.8,8.8,0,0,0,6.94,3.16,7.68,7.68,0,0,0,6.17-3q2.49-3,2.49-10.28,0-6.69-2.59-9.82a7.93,7.93,0,0,0-6.32-3.13A8.49,8.49,0,0,0,678,86.1Q675.25,89.25,675.26,96.36Z"/></svg>