<svg width="380" height="230" viewBox="0 0 380 230" fill="none" xmlns="http://www.w3.org/2000/svg">
<path d="M43.8973 202.126C42.7493 202.126 41.8719 201.692 41.2653 200.824C40.6679 199.947 40.3693 198.691 40.3693 197.058C40.3693 195.397 40.6679 194.141 41.2653 193.292C41.8719 192.433 42.7493 192.004 43.8973 192.004C45.0546 192.004 45.9319 192.433 46.5293 193.292C47.1266 194.141 47.4253 195.392 47.4253 197.044C47.4253 198.687 47.1219 199.947 46.5153 200.824C45.9179 201.692 45.0453 202.126 43.8973 202.126ZM43.8973 200.922C44.6066 200.922 45.1339 200.609 45.4793 199.984C45.8246 199.359 45.9973 198.379 45.9973 197.044C45.9973 195.709 45.8246 194.739 45.4793 194.132C45.1433 193.516 44.6159 193.208 43.8973 193.208C43.1879 193.208 42.6606 193.516 42.3153 194.132C41.9699 194.748 41.7973 195.719 41.7973 197.044C41.7973 198.379 41.9699 199.359 42.3153 199.984C42.6606 200.609 43.1879 200.922 43.8973 200.922Z" fill="black"/>
<path d="M91.1715 202.126C90.8355 202.126 90.4902 202.084 90.1355 202C89.7902 201.907 89.4635 201.771 89.1555 201.594C88.8475 201.417 88.5769 201.211 88.3435 200.978L88.8475 199.872C89.1929 200.208 89.5662 200.465 89.9675 200.642C90.3689 200.81 90.7749 200.894 91.1855 200.894C91.6242 200.894 92.0115 200.815 92.3475 200.656C92.6835 200.497 92.9635 200.259 93.1875 199.942C93.4209 199.625 93.5935 199.233 93.7055 198.766C93.8269 198.29 93.8875 197.744 93.8875 197.128V195.938H94.0275C93.9622 196.433 93.8035 196.867 93.5515 197.24C93.3089 197.613 92.9915 197.898 92.5995 198.094C92.2169 198.29 91.7829 198.388 91.2975 198.388C90.7282 198.388 90.2195 198.253 89.7715 197.982C89.3329 197.711 88.9829 197.338 88.7215 196.862C88.4695 196.386 88.3435 195.849 88.3435 195.252C88.3435 194.617 88.4789 194.057 88.7495 193.572C89.0295 193.077 89.4075 192.695 89.8835 192.424C90.3595 192.144 90.9102 192.004 91.5355 192.004C92.3382 192.004 93.0149 192.195 93.5655 192.578C94.1162 192.951 94.5362 193.502 94.8255 194.23C95.1242 194.958 95.2735 195.831 95.2735 196.848C95.2735 197.977 95.1102 198.934 94.7835 199.718C94.4569 200.502 93.9902 201.099 93.3835 201.51C92.7769 201.921 92.0395 202.126 91.1715 202.126ZM91.6335 197.198C92.0069 197.198 92.3382 197.114 92.6275 196.946C92.9169 196.778 93.1409 196.545 93.2995 196.246C93.4675 195.938 93.5515 195.583 93.5515 195.182C93.5515 194.79 93.4675 194.445 93.2995 194.146C93.1409 193.838 92.9169 193.6 92.6275 193.432C92.3382 193.255 92.0069 193.166 91.6335 193.166C91.2509 193.166 90.9149 193.255 90.6255 193.432C90.3455 193.6 90.1215 193.838 89.9535 194.146C89.7949 194.445 89.7155 194.79 89.7155 195.182C89.7155 195.583 89.7949 195.938 89.9535 196.246C90.1215 196.545 90.3455 196.778 90.6255 196.946C90.9149 197.114 91.2509 197.198 91.6335 197.198Z" fill="black"/>
<path d="M137.312 202V200.782H139.552V193.362H140.28L137.802 194.902L137.214 193.824L139.972 192.13H140.994V200.782H143.094V202H137.312ZM148.268 202.126C147.139 202.126 146.257 201.883 145.622 201.398C144.997 200.913 144.684 200.236 144.684 199.368C144.684 198.901 144.778 198.491 144.964 198.136C145.151 197.772 145.412 197.478 145.748 197.254C146.084 197.03 146.472 196.89 146.91 196.834V197.086C146.509 197.002 146.159 196.848 145.86 196.624C145.562 196.391 145.328 196.106 145.16 195.77C145.002 195.425 144.922 195.047 144.922 194.636C144.922 193.815 145.226 193.171 145.832 192.704C146.439 192.237 147.251 192.004 148.268 192.004C149.295 192.004 150.112 192.237 150.718 192.704C151.325 193.171 151.628 193.815 151.628 194.636C151.628 195.047 151.544 195.425 151.376 195.77C151.218 196.106 150.989 196.391 150.69 196.624C150.392 196.848 150.042 196.997 149.64 197.072V196.834C150.088 196.89 150.476 197.035 150.802 197.268C151.129 197.492 151.386 197.781 151.572 198.136C151.759 198.491 151.852 198.901 151.852 199.368C151.852 200.236 151.535 200.913 150.9 201.398C150.275 201.883 149.398 202.126 148.268 202.126ZM148.268 200.978C149.006 200.978 149.561 200.838 149.934 200.558C150.308 200.269 150.494 199.839 150.494 199.27C150.494 198.701 150.308 198.276 149.934 197.996C149.561 197.716 149.006 197.576 148.268 197.576C147.54 197.576 146.985 197.716 146.602 197.996C146.229 198.276 146.042 198.701 146.042 199.27C146.042 199.839 146.229 200.269 146.602 200.558C146.985 200.838 147.54 200.978 148.268 200.978ZM148.268 196.428C148.894 196.428 149.379 196.283 149.724 195.994C150.079 195.695 150.256 195.289 150.256 194.776C150.256 194.272 150.079 193.875 149.724 193.586C149.379 193.297 148.894 193.152 148.268 193.152C147.643 193.152 147.158 193.297 146.812 193.586C146.467 193.875 146.294 194.272 146.294 194.776C146.294 195.289 146.467 195.695 146.812 195.994C147.158 196.283 147.643 196.428 148.268 196.428Z" fill="black"/>
<path d="M192.84 202V200.922L196.13 197.394C196.438 197.058 196.686 196.75 196.872 196.47C197.059 196.181 197.194 195.905 197.278 195.644C197.372 195.373 197.418 195.103 197.418 194.832C197.418 194.309 197.26 193.913 196.942 193.642C196.625 193.371 196.158 193.236 195.542 193.236C195.066 193.236 194.614 193.325 194.184 193.502C193.764 193.679 193.363 193.95 192.98 194.314L192.462 193.208C192.836 192.844 193.312 192.555 193.89 192.34C194.469 192.116 195.071 192.004 195.696 192.004C196.378 192.004 196.952 192.111 197.418 192.326C197.894 192.531 198.254 192.835 198.496 193.236C198.739 193.637 198.86 194.127 198.86 194.706C198.86 195.005 198.823 195.299 198.748 195.588C198.683 195.868 198.576 196.148 198.426 196.428C198.286 196.708 198.104 196.997 197.88 197.296C197.666 197.595 197.404 197.903 197.096 198.22L194.282 201.188V200.782H199.252V202H192.84ZM201.445 202L206.261 192.802V193.348H200.913V192.13H207.591V193.208L203.041 202H201.445Z" fill="black"/>
<path d="M251.675 202.126C251.236 202.126 250.807 202.084 250.387 202C249.976 201.907 249.589 201.776 249.225 201.608C248.87 201.431 248.558 201.221 248.287 200.978L248.791 199.858C249.23 200.213 249.682 200.474 250.149 200.642C250.616 200.81 251.11 200.894 251.633 200.894C252.081 200.894 252.459 200.829 252.767 200.698C253.075 200.567 253.304 200.376 253.453 200.124C253.612 199.872 253.691 199.569 253.691 199.214C253.691 198.682 253.514 198.285 253.159 198.024C252.814 197.753 252.31 197.618 251.647 197.618H250.121V196.4H251.507C251.908 196.4 252.249 196.335 252.529 196.204C252.809 196.064 253.024 195.873 253.173 195.63C253.332 195.378 253.411 195.075 253.411 194.72C253.411 194.244 253.252 193.88 252.935 193.628C252.627 193.367 252.174 193.236 251.577 193.236C251.073 193.236 250.606 193.325 250.177 193.502C249.748 193.679 249.342 193.95 248.959 194.314L248.455 193.208C248.838 192.825 249.314 192.531 249.883 192.326C250.462 192.111 251.064 192.004 251.689 192.004C252.342 192.004 252.902 192.107 253.369 192.312C253.845 192.517 254.204 192.811 254.447 193.194C254.699 193.577 254.825 194.034 254.825 194.566C254.825 195.163 254.657 195.681 254.321 196.12C253.994 196.549 253.542 196.834 252.963 196.974V196.82C253.42 196.895 253.808 197.044 254.125 197.268C254.442 197.492 254.685 197.777 254.853 198.122C255.021 198.467 255.105 198.864 255.105 199.312C255.105 199.891 254.965 200.395 254.685 200.824C254.414 201.244 254.022 201.566 253.509 201.79C252.996 202.014 252.384 202.126 251.675 202.126ZM260.573 202.126C259.78 202.126 259.103 201.935 258.543 201.552C257.993 201.169 257.568 200.619 257.269 199.9C256.98 199.172 256.835 198.299 256.835 197.282C256.835 196.143 256.999 195.187 257.325 194.412C257.652 193.628 258.123 193.031 258.739 192.62C259.355 192.209 260.093 192.004 260.951 192.004C261.287 192.004 261.628 192.051 261.973 192.144C262.319 192.237 262.645 192.368 262.953 192.536C263.271 192.704 263.541 192.909 263.765 193.152L263.261 194.244C262.916 193.908 262.543 193.656 262.141 193.488C261.749 193.32 261.343 193.236 260.923 193.236C260.485 193.236 260.097 193.315 259.761 193.474C259.435 193.633 259.155 193.871 258.921 194.188C258.697 194.505 258.525 194.897 258.403 195.364C258.291 195.831 258.235 196.377 258.235 197.002V198.192H258.081C258.147 197.688 258.301 197.254 258.543 196.89C258.795 196.517 259.117 196.232 259.509 196.036C259.901 195.84 260.335 195.742 260.811 195.742C261.39 195.742 261.899 195.877 262.337 196.148C262.785 196.409 263.135 196.778 263.387 197.254C263.639 197.73 263.765 198.271 263.765 198.878C263.765 199.503 263.63 200.063 263.359 200.558C263.089 201.053 262.711 201.44 262.225 201.72C261.749 201.991 261.199 202.126 260.573 202.126ZM260.489 200.95C260.872 200.95 261.208 200.866 261.497 200.698C261.787 200.53 262.011 200.297 262.169 199.998C262.328 199.69 262.407 199.335 262.407 198.934C262.407 198.533 262.328 198.183 262.169 197.884C262.011 197.585 261.787 197.352 261.497 197.184C261.208 197.007 260.872 196.918 260.489 196.918C260.107 196.918 259.771 197.007 259.481 197.184C259.201 197.352 258.977 197.585 258.809 197.884C258.651 198.183 258.571 198.533 258.571 198.934C258.571 199.335 258.651 199.69 258.809 199.998C258.977 200.297 259.206 200.53 259.495 200.698C259.785 200.866 260.116 200.95 260.489 200.95Z" fill="black"/>
<path d="M308.703 202V199.998H304.265V198.92L308.955 192.13H310.145V198.78H311.587V199.998H310.145V202H308.703ZM308.703 198.78V193.866H309.081L305.441 199.172V198.78H308.703ZM316.356 202.126C315.927 202.126 315.507 202.079 315.096 201.986C314.695 201.893 314.317 201.762 313.962 201.594C313.607 201.426 313.299 201.221 313.038 200.978L313.528 199.858C313.976 200.213 314.429 200.474 314.886 200.642C315.343 200.81 315.824 200.894 316.328 200.894C316.972 200.894 317.476 200.721 317.84 200.376C318.204 200.031 318.386 199.569 318.386 198.99C318.386 198.402 318.213 197.921 317.868 197.548C317.523 197.175 317.042 196.988 316.426 196.988C315.987 196.988 315.595 197.077 315.25 197.254C314.914 197.431 314.611 197.702 314.34 198.066H313.332V192.13H319.212V193.348H314.746V196.904H314.354C314.606 196.549 314.937 196.274 315.348 196.078C315.768 195.882 316.23 195.784 316.734 195.784C317.359 195.784 317.901 195.915 318.358 196.176C318.815 196.437 319.17 196.806 319.422 197.282C319.674 197.749 319.8 198.295 319.8 198.92C319.8 199.555 319.66 200.115 319.38 200.6C319.1 201.076 318.703 201.449 318.19 201.72C317.677 201.991 317.065 202.126 316.356 202.126Z" fill="black"/>
<path d="M363.938 202.126C363.509 202.126 363.089 202.079 362.678 201.986C362.277 201.893 361.899 201.762 361.544 201.594C361.189 201.426 360.881 201.221 360.62 200.978L361.11 199.858C361.558 200.213 362.011 200.474 362.468 200.642C362.925 200.81 363.406 200.894 363.91 200.894C364.554 200.894 365.058 200.721 365.422 200.376C365.786 200.031 365.968 199.569 365.968 198.99C365.968 198.402 365.795 197.921 365.45 197.548C365.105 197.175 364.624 196.988 364.008 196.988C363.569 196.988 363.177 197.077 362.832 197.254C362.496 197.431 362.193 197.702 361.922 198.066H360.914V192.13H366.794V193.348H362.328V196.904H361.936C362.188 196.549 362.519 196.274 362.93 196.078C363.35 195.882 363.812 195.784 364.316 195.784C364.941 195.784 365.483 195.915 365.94 196.176C366.397 196.437 366.752 196.806 367.004 197.282C367.256 197.749 367.382 198.295 367.382 198.92C367.382 199.555 367.242 200.115 366.962 200.6C366.682 201.076 366.285 201.449 365.772 201.72C365.259 201.991 364.647 202.126 363.938 202.126ZM373.075 202V199.998H368.637V198.92L373.327 192.13H374.517V198.78H375.959V199.998H374.517V202H373.075ZM373.075 198.78V193.866H373.453L369.813 199.172V198.78H373.075Z" fill="black"/>
<path d="M332.924 221V211.13H334.142L337.796 217.948L341.436 211.13H342.626V221H341.324V213.762L338.23 219.488H337.348L334.24 213.79V221H332.924ZM347.769 221.126C347.078 221.126 346.481 220.981 345.977 220.692C345.473 220.403 345.081 219.997 344.801 219.474C344.53 218.942 344.395 218.312 344.395 217.584C344.395 216.856 344.53 216.231 344.801 215.708C345.081 215.176 345.473 214.765 345.977 214.476C346.481 214.187 347.078 214.042 347.769 214.042C348.441 214.042 349.029 214.187 349.533 214.476C350.037 214.765 350.429 215.176 350.709 215.708C350.989 216.231 351.129 216.856 351.129 217.584C351.129 218.312 350.989 218.942 350.709 219.474C350.429 219.997 350.037 220.403 349.533 220.692C349.029 220.981 348.441 221.126 347.769 221.126ZM347.769 220.034C348.347 220.034 348.814 219.824 349.169 219.404C349.523 218.984 349.701 218.377 349.701 217.584C349.701 216.791 349.523 216.189 349.169 215.778C348.814 215.358 348.347 215.148 347.769 215.148C347.181 215.148 346.709 215.358 346.355 215.778C346 216.189 345.823 216.791 345.823 217.584C345.823 218.377 346 218.984 346.355 219.404C346.709 219.824 347.181 220.034 347.769 220.034ZM352.717 221V214.168H354.089V215.302C354.322 214.891 354.639 214.579 355.041 214.364C355.451 214.149 355.909 214.042 356.413 214.042C358.027 214.042 358.835 214.957 358.835 216.786V221H357.421V216.87C357.421 216.282 357.304 215.853 357.071 215.582C356.847 215.311 356.492 215.176 356.007 215.176C355.437 215.176 354.98 215.358 354.635 215.722C354.299 216.077 354.131 216.548 354.131 217.136V221H352.717ZM363.695 221.126C362.836 221.126 362.197 220.907 361.777 220.468C361.357 220.029 361.147 219.395 361.147 218.564V215.26H359.817V214.168H361.147V212.11H362.561V214.168H364.675V215.26H362.561V218.452C362.561 218.947 362.664 219.32 362.869 219.572C363.084 219.824 363.429 219.95 363.905 219.95C364.054 219.95 364.199 219.936 364.339 219.908C364.479 219.871 364.619 219.829 364.759 219.782L364.983 220.846C364.843 220.93 364.647 220.995 364.395 221.042C364.152 221.098 363.919 221.126 363.695 221.126ZM365.896 221V211.13H367.31V215.232C367.544 214.84 367.856 214.546 368.248 214.35C368.65 214.145 369.098 214.042 369.592 214.042C371.207 214.042 372.014 214.957 372.014 216.786V221H370.6V216.87C370.6 216.282 370.484 215.853 370.25 215.582C370.026 215.311 369.672 215.176 369.186 215.176C368.617 215.176 368.16 215.358 367.814 215.722C367.478 216.077 367.31 216.548 367.31 217.136V221H365.896ZM376.357 221.126C375.797 221.126 375.274 221.056 374.789 220.916C374.303 220.767 373.897 220.561 373.571 220.3L373.977 219.348C374.322 219.591 374.7 219.777 375.111 219.908C375.531 220.039 375.951 220.104 376.371 220.104C376.865 220.104 377.239 220.015 377.491 219.838C377.743 219.661 377.869 219.423 377.869 219.124C377.869 218.881 377.785 218.695 377.617 218.564C377.449 218.424 377.197 218.317 376.861 218.242L375.531 217.976C374.355 217.733 373.767 217.127 373.767 216.156C373.767 215.512 374.023 214.999 374.537 214.616C375.05 214.233 375.722 214.042 376.553 214.042C377.029 214.042 377.481 214.112 377.911 214.252C378.349 214.392 378.713 214.602 379.003 214.882L378.597 215.834C378.317 215.591 377.995 215.405 377.631 215.274C377.267 215.143 376.907 215.078 376.553 215.078C376.067 215.078 375.699 215.171 375.447 215.358C375.195 215.535 375.069 215.778 375.069 216.086C375.069 216.553 375.377 216.851 375.993 216.982L377.323 217.248C377.929 217.369 378.387 217.575 378.695 217.864C379.012 218.153 379.171 218.545 379.171 219.04C379.171 219.693 378.914 220.207 378.401 220.58C377.887 220.944 377.206 221.126 376.357 221.126Z" fill="white"/>
<path d="M3.23655 17V7.13H4.45455L8.33255 14.354H7.89855L11.7485 7.13H12.9385V17H11.6365V9.188H11.9445L8.54255 15.488H7.66055L4.21655 9.174H4.55255V17H3.23655ZM14.9871 8.586V7.116H16.6391V8.586H14.9871ZM15.1131 17V10.168H16.5271V17H15.1131ZM20.7434 17.126C19.9968 17.126 19.4368 16.916 19.0634 16.496C18.6994 16.0667 18.5174 15.4507 18.5174 14.648V7.13H19.9314V14.564C19.9314 14.8627 19.9734 15.1193 20.0574 15.334C20.1414 15.5393 20.2674 15.6933 20.4354 15.796C20.6034 15.8987 20.8134 15.95 21.0654 15.95C21.1774 15.95 21.2848 15.9453 21.3874 15.936C21.4901 15.9267 21.5881 15.908 21.6814 15.88L21.6534 17.014C21.4948 17.0513 21.3408 17.0793 21.1914 17.098C21.0421 17.1167 20.8928 17.126 20.7434 17.126ZM25.0227 17.126C24.2761 17.126 23.7161 16.916 23.3427 16.496C22.9787 16.0667 22.7967 15.4507 22.7967 14.648V7.13H24.2107V14.564C24.2107 14.8627 24.2527 15.1193 24.3367 15.334C24.4207 15.5393 24.5467 15.6933 24.7147 15.796C24.8827 15.8987 25.0927 15.95 25.3447 15.95C25.4567 15.95 25.5641 15.9453 25.6667 15.936C25.7694 15.9267 25.8674 15.908 25.9607 15.88L25.9327 17.014C25.7741 17.0513 25.6201 17.0793 25.4707 17.098C25.3214 17.1167 25.1721 17.126 25.0227 17.126ZM26.95 8.586V7.116H28.602V8.586H26.95ZM27.076 17V10.168H28.49V17H27.076ZM33.4483 17.126C32.7577 17.126 32.1603 16.9813 31.6563 16.692C31.1617 16.4027 30.7743 15.992 30.4943 15.46C30.2143 14.928 30.0743 14.3027 30.0743 13.584C30.0743 12.856 30.2143 12.2307 30.4943 11.708C30.7743 11.176 31.1617 10.7653 31.6563 10.476C32.1603 10.1867 32.7577 10.042 33.4483 10.042C34.1297 10.042 34.7177 10.1867 35.2123 10.476C35.7163 10.7653 36.1083 11.176 36.3883 11.708C36.6683 12.24 36.8083 12.8653 36.8083 13.584C36.8083 14.3027 36.6683 14.928 36.3883 15.46C36.1083 15.992 35.7163 16.4027 35.2123 16.692C34.7177 16.9813 34.1297 17.126 33.4483 17.126ZM33.4343 16.034C34.0223 16.034 34.4937 15.824 34.8483 15.404C35.203 14.984 35.3803 14.3773 35.3803 13.584C35.3803 12.7813 35.203 12.1747 34.8483 11.764C34.4937 11.3533 34.0223 11.148 33.4343 11.148C32.8557 11.148 32.389 11.3533 32.0343 11.764C31.6797 12.1747 31.5023 12.7813 31.5023 13.584C31.5023 14.3773 31.6797 14.984 32.0343 15.404C32.389 15.824 32.8557 16.034 33.4343 16.034ZM38.3963 17V10.168H39.7683V11.624H39.6143C39.8197 11.1013 40.1417 10.7093 40.5803 10.448C41.019 10.1773 41.523 10.042 42.0923 10.042C42.6337 10.042 43.0817 10.1447 43.4363 10.35C43.8003 10.546 44.071 10.8493 44.2483 11.26C44.4257 11.6613 44.5143 12.17 44.5143 12.786V17H43.1003V12.87C43.1003 12.478 43.049 12.1607 42.9463 11.918C42.8437 11.666 42.6897 11.4793 42.4843 11.358C42.279 11.2367 42.013 11.176 41.6863 11.176C41.313 11.176 40.9817 11.2553 40.6923 11.414C40.4123 11.5727 40.193 11.8013 40.0343 12.1C39.885 12.3987 39.8103 12.744 39.8103 13.136V17H38.3963ZM48.8568 17.126C48.4928 17.126 48.1381 17.0933 47.7928 17.028C47.4474 16.9627 47.1301 16.8693 46.8408 16.748C46.5514 16.6267 46.2948 16.4773 46.0708 16.3L46.4768 15.348C46.7101 15.5067 46.9574 15.6467 47.2188 15.768C47.4801 15.88 47.7508 15.964 48.0308 16.02C48.3201 16.076 48.6001 16.104 48.8708 16.104C49.3654 16.104 49.7388 16.0153 49.9908 15.838C50.2428 15.6607 50.3688 15.4227 50.3688 15.124C50.3688 14.8813 50.2848 14.6947 50.1168 14.564C49.9488 14.424 49.6968 14.3167 49.3608 14.242L48.0308 13.976C47.4521 13.8547 47.0134 13.64 46.7148 13.332C46.4161 13.024 46.2668 12.632 46.2668 12.156C46.2668 11.7267 46.3834 11.3533 46.6168 11.036C46.8501 10.7187 47.1768 10.476 47.5968 10.308C48.0168 10.1307 48.5021 10.042 49.0528 10.042C49.3701 10.042 49.6781 10.0747 49.9768 10.14C50.2754 10.2053 50.5554 10.2987 50.8168 10.42C51.0874 10.5413 51.3161 10.6953 51.5028 10.882L51.0968 11.834C50.9194 11.6753 50.7141 11.54 50.4808 11.428C50.2568 11.316 50.0234 11.232 49.7808 11.176C49.5381 11.1107 49.2954 11.078 49.0528 11.078C48.5581 11.078 48.1848 11.1713 47.9328 11.358C47.6901 11.5353 47.5688 11.778 47.5688 12.086C47.5688 12.3193 47.6434 12.5107 47.7928 12.66C47.9421 12.8093 48.1754 12.9167 48.4928 12.982L49.8228 13.248C50.4294 13.3693 50.8868 13.5747 51.1948 13.864C51.5121 14.1533 51.6708 14.5453 51.6708 15.04C51.6708 15.4693 51.5541 15.8427 51.3208 16.16C51.0874 16.4773 50.7561 16.72 50.3268 16.888C49.9068 17.0467 49.4168 17.126 48.8568 17.126Z" fill="black"/>
<path d="M33.0095 187.859C32.2441 187.859 31.6001 187.663 31.0775 187.271C30.5548 186.879 30.1581 186.31 29.8875 185.563C29.6168 184.807 29.4815 183.883 29.4815 182.791C29.4815 181.68 29.6168 180.752 29.8875 180.005C30.1581 179.258 30.5548 178.694 31.0775 178.311C31.6001 177.928 32.2441 177.737 33.0095 177.737C33.7841 177.737 34.4328 177.928 34.9555 178.311C35.4781 178.684 35.8701 179.244 36.1315 179.991C36.4021 180.738 36.5375 181.666 36.5375 182.777C36.5375 183.869 36.4021 184.793 36.1315 185.549C35.8608 186.305 35.4641 186.879 34.9415 187.271C34.4188 187.663 33.7748 187.859 33.0095 187.859ZM33.0095 186.655C33.7281 186.655 34.2555 186.342 34.5915 185.717C34.9368 185.092 35.1095 184.112 35.1095 182.777C35.1095 181.442 34.9368 180.472 34.5915 179.865C34.2555 179.249 33.7281 178.941 33.0095 178.941C32.3001 178.941 31.7728 179.249 31.4275 179.865C31.0821 180.472 30.9095 181.442 30.9095 182.777C30.9095 184.112 31.0821 185.092 31.4275 185.717C31.7728 186.342 32.3001 186.655 33.0095 186.655Z" fill="black"/>
<path d="M13.7104 161V159.922L17.0004 156.394C17.3084 156.058 17.5557 155.75 17.7424 155.47C17.9291 155.181 18.0644 154.905 18.1484 154.644C18.2417 154.373 18.2884 154.103 18.2884 153.832C18.2884 153.309 18.1297 152.913 17.8124 152.642C17.4951 152.371 17.0284 152.236 16.4124 152.236C15.9364 152.236 15.4837 152.325 15.0544 152.502C14.6344 152.679 14.2331 152.95 13.8504 153.314L13.3324 152.208C13.7057 151.844 14.1817 151.555 14.7604 151.34C15.3391 151.116 15.9411 151.004 16.5664 151.004C17.2477 151.004 17.8217 151.111 18.2884 151.326C18.7644 151.531 19.1237 151.835 19.3664 152.236C19.6091 152.637 19.7304 153.127 19.7304 153.706C19.7304 154.005 19.6931 154.299 19.6184 154.588C19.5531 154.868 19.4457 155.148 19.2964 155.428C19.1564 155.708 18.9744 155.997 18.7504 156.296C18.5357 156.595 18.2744 156.903 17.9664 157.22L15.1524 160.188V159.782H20.1224V161H13.7104ZM25.1149 161.126C24.3496 161.126 23.7056 160.93 23.1829 160.538C22.6603 160.146 22.2636 159.577 21.9929 158.83C21.7223 158.074 21.5869 157.15 21.5869 156.058C21.5869 154.947 21.7223 154.019 21.9929 153.272C22.2636 152.525 22.6603 151.961 23.1829 151.578C23.7056 151.195 24.3496 151.004 25.1149 151.004C25.8896 151.004 26.5383 151.195 27.0609 151.578C27.5836 151.951 27.9756 152.511 28.2369 153.258C28.5076 154.005 28.6429 154.933 28.6429 156.044C28.6429 157.136 28.5076 158.06 28.2369 158.816C27.9663 159.572 27.5696 160.146 27.0469 160.538C26.5243 160.93 25.8803 161.126 25.1149 161.126ZM25.1149 159.922C25.8336 159.922 26.3609 159.609 26.6969 158.984C27.0423 158.359 27.2149 157.379 27.2149 156.044C27.2149 154.709 27.0423 153.739 26.6969 153.132C26.3609 152.516 25.8336 152.208 25.1149 152.208C24.4056 152.208 23.8783 152.516 23.5329 153.132C23.1876 153.739 23.0149 154.709 23.0149 156.044C23.0149 157.379 23.1876 158.359 23.5329 158.984C23.8783 159.609 24.4056 159.922 25.1149 159.922ZM33.5095 161.126C32.7441 161.126 32.1001 160.93 31.5775 160.538C31.0548 160.146 30.6581 159.577 30.3875 158.83C30.1168 158.074 29.9815 157.15 29.9815 156.058C29.9815 154.947 30.1168 154.019 30.3875 153.272C30.6581 152.525 31.0548 151.961 31.5775 151.578C32.1001 151.195 32.7441 151.004 33.5095 151.004C34.2841 151.004 34.9328 151.195 35.4555 151.578C35.9781 151.951 36.3701 152.511 36.6315 153.258C36.9021 154.005 37.0375 154.933 37.0375 156.044C37.0375 157.136 36.9021 158.06 36.6315 158.816C36.3608 159.572 35.9641 160.146 35.4415 160.538C34.9188 160.93 34.2748 161.126 33.5095 161.126ZM33.5095 159.922C34.2281 159.922 34.7555 159.609 35.0915 158.984C35.4368 158.359 35.6095 157.379 35.6095 156.044C35.6095 154.709 35.4368 153.739 35.0915 153.132C34.7555 152.516 34.2281 152.208 33.5095 152.208C32.8001 152.208 32.2728 152.516 31.9275 153.132C31.5821 153.739 31.4095 154.709 31.4095 156.044C31.4095 157.379 31.5821 158.359 31.9275 158.984C32.2728 159.609 32.8001 159.922 33.5095 159.922Z" fill="black"/>
<path d="M17.6164 134V131.998H13.1784V130.92L17.8684 124.13H19.0584V130.78H20.5004V131.998H19.0584V134H17.6164ZM17.6164 130.78V125.866H17.9944L14.3544 131.172V130.78H17.6164ZM25.1149 134.126C24.3496 134.126 23.7056 133.93 23.1829 133.538C22.6603 133.146 22.2636 132.577 21.9929 131.83C21.7223 131.074 21.5869 130.15 21.5869 129.058C21.5869 127.947 21.7223 127.019 21.9929 126.272C22.2636 125.525 22.6603 124.961 23.1829 124.578C23.7056 124.195 24.3496 124.004 25.1149 124.004C25.8896 124.004 26.5383 124.195 27.0609 124.578C27.5836 124.951 27.9756 125.511 28.2369 126.258C28.5076 127.005 28.6429 127.933 28.6429 129.044C28.6429 130.136 28.5076 131.06 28.2369 131.816C27.9663 132.572 27.5696 133.146 27.0469 133.538C26.5243 133.93 25.8803 134.126 25.1149 134.126ZM25.1149 132.922C25.8336 132.922 26.3609 132.609 26.6969 131.984C27.0423 131.359 27.2149 130.379 27.2149 129.044C27.2149 127.709 27.0423 126.739 26.6969 126.132C26.3609 125.516 25.8336 125.208 25.1149 125.208C24.4056 125.208 23.8783 125.516 23.5329 126.132C23.1876 126.739 23.0149 127.709 23.0149 129.044C23.0149 130.379 23.1876 131.359 23.5329 131.984C23.8783 132.609 24.4056 132.922 25.1149 132.922ZM33.5095 134.126C32.7441 134.126 32.1001 133.93 31.5775 133.538C31.0548 133.146 30.6581 132.577 30.3875 131.83C30.1168 131.074 29.9815 130.15 29.9815 129.058C29.9815 127.947 30.1168 127.019 30.3875 126.272C30.6581 125.525 31.0548 124.961 31.5775 124.578C32.1001 124.195 32.7441 124.004 33.5095 124.004C34.2841 124.004 34.9328 124.195 35.4555 124.578C35.9781 124.951 36.3701 125.511 36.6315 126.258C36.9021 127.005 37.0375 127.933 37.0375 129.044C37.0375 130.136 36.9021 131.06 36.6315 131.816C36.3608 132.572 35.9641 133.146 35.4415 133.538C34.9188 133.93 34.2748 134.126 33.5095 134.126ZM33.5095 132.922C34.2281 132.922 34.7555 132.609 35.0915 131.984C35.4368 131.359 35.6095 130.379 35.6095 129.044C35.6095 127.709 35.4368 126.739 35.0915 126.132C34.7555 125.516 34.2281 125.208 33.5095 125.208C32.8001 125.208 32.2728 125.516 31.9275 126.132C31.5821 126.739 31.4095 127.709 31.4095 129.044C31.4095 130.379 31.5821 131.359 31.9275 131.984C32.2728 132.609 32.8001 132.922 33.5095 132.922Z" fill="black"/>
<path d="M16.5704 105.791C15.7771 105.791 15.1004 105.599 14.5404 105.217C13.9897 104.834 13.5651 104.283 13.2664 103.565C12.9771 102.837 12.8324 101.964 12.8324 100.947C12.8324 99.8079 12.9957 98.8512 13.3224 98.0766C13.6491 97.2926 14.1204 96.6952 14.7364 96.2846C15.3524 95.8739 16.0897 95.6686 16.9484 95.6686C17.2844 95.6686 17.6251 95.7152 17.9704 95.8086C18.3157 95.9019 18.6424 96.0326 18.9504 96.2005C19.2677 96.3686 19.5384 96.5739 19.7624 96.8166L19.2584 97.9086C18.9131 97.5726 18.5397 97.3206 18.1384 97.1526C17.7464 96.9846 17.3404 96.9006 16.9204 96.9006C16.4817 96.9006 16.0944 96.9799 15.7584 97.1386C15.4317 97.2972 15.1517 97.5352 14.9184 97.8526C14.6944 98.1699 14.5217 98.5619 14.4004 99.0286C14.2884 99.4952 14.2324 100.041 14.2324 100.667V101.857H14.0784C14.1437 101.353 14.2977 100.919 14.5404 100.555C14.7924 100.181 15.1144 99.8966 15.5064 99.7006C15.8984 99.5046 16.3324 99.4066 16.8084 99.4066C17.3871 99.4066 17.8957 99.5419 18.3344 99.8126C18.7824 100.074 19.1324 100.443 19.3844 100.919C19.6364 101.395 19.7624 101.936 19.7624 102.543C19.7624 103.168 19.6271 103.728 19.3564 104.223C19.0857 104.717 18.7077 105.105 18.2224 105.385C17.7464 105.655 17.1957 105.791 16.5704 105.791ZM16.4864 104.615C16.8691 104.615 17.2051 104.531 17.4944 104.363C17.7837 104.195 18.0077 103.961 18.1664 103.663C18.3251 103.355 18.4044 103 18.4044 102.599C18.4044 102.197 18.3251 101.847 18.1664 101.549C18.0077 101.25 17.7837 101.017 17.4944 100.849C17.2051 100.671 16.8691 100.583 16.4864 100.583C16.1037 100.583 15.7677 100.671 15.4784 100.849C15.1984 101.017 14.9744 101.25 14.8064 101.549C14.6477 101.847 14.5684 102.197 14.5684 102.599C14.5684 103 14.6477 103.355 14.8064 103.663C14.9744 103.961 15.2031 104.195 15.4924 104.363C15.7817 104.531 16.1131 104.615 16.4864 104.615ZM24.6149 105.791C23.8496 105.791 23.2056 105.595 22.6829 105.203C22.1603 104.811 21.7636 104.241 21.4929 103.495C21.2223 102.739 21.0869 101.815 21.0869 100.723C21.0869 99.6119 21.2223 98.6832 21.4929 97.9366C21.7636 97.1899 22.1603 96.6252 22.6829 96.2426C23.2056 95.8599 23.8496 95.6686 24.6149 95.6686C25.3896 95.6686 26.0383 95.8599 26.5609 96.2426C27.0836 96.6159 27.4756 97.1759 27.7369 97.9226C28.0076 98.6692 28.1429 99.5979 28.1429 100.709C28.1429 101.801 28.0076 102.725 27.7369 103.481C27.4663 104.237 27.0696 104.811 26.5469 105.203C26.0243 105.595 25.3803 105.791 24.6149 105.791ZM24.6149 104.587C25.3336 104.587 25.8609 104.274 26.1969 103.649C26.5423 103.023 26.7149 102.043 26.7149 100.709C26.7149 99.3739 26.5423 98.4032 26.1969 97.7966C25.8609 97.1806 25.3336 96.8726 24.6149 96.8726C23.9056 96.8726 23.3783 97.1806 23.0329 97.7966C22.6876 98.4032 22.5149 99.3739 22.5149 100.709C22.5149 102.043 22.6876 103.023 23.0329 103.649C23.3783 104.274 23.9056 104.587 24.6149 104.587ZM33.0095 105.791C32.2441 105.791 31.6001 105.595 31.0775 105.203C30.5548 104.811 30.1581 104.241 29.8875 103.495C29.6168 102.739 29.4815 101.815 29.4815 100.723C29.4815 99.6119 29.6168 98.6832 29.8875 97.9366C30.1581 97.1899 30.5548 96.6252 31.0775 96.2426C31.6001 95.8599 32.2441 95.6686 33.0095 95.6686C33.7841 95.6686 34.4328 95.8599 34.9555 96.2426C35.4781 96.6159 35.8701 97.1759 36.1315 97.9226C36.4021 98.6692 36.5375 99.5979 36.5375 100.709C36.5375 101.801 36.4021 102.725 36.1315 103.481C35.8608 104.237 35.4641 104.811 34.9415 105.203C34.4188 105.595 33.7748 105.791 33.0095 105.791ZM33.0095 104.587C33.7281 104.587 34.2555 104.274 34.5915 103.649C34.9368 103.023 35.1095 102.043 35.1095 100.709C35.1095 99.3739 34.9368 98.4032 34.5915 97.7966C34.2555 97.1806 33.7281 96.8726 33.0095 96.8726C32.3001 96.8726 31.7728 97.1806 31.4275 97.7966C31.0821 98.4032 30.9095 99.3739 30.9095 100.709C30.9095 102.043 31.0821 103.023 31.4275 103.649C31.7728 104.274 32.3001 104.587 33.0095 104.587Z" fill="black"/>
<path d="M16.7204 78.126C15.5911 78.126 14.7091 77.8833 14.0744 77.398C13.4491 76.9127 13.1364 76.236 13.1364 75.368C13.1364 74.9013 13.2297 74.4907 13.4164 74.136C13.6031 73.772 13.8644 73.478 14.2004 73.254C14.5364 73.03 14.9237 72.89 15.3624 72.834V73.086C14.9611 73.002 14.6111 72.848 14.3124 72.624C14.0137 72.3907 13.7804 72.106 13.6124 71.77C13.4537 71.4247 13.3744 71.0467 13.3744 70.636C13.3744 69.8147 13.6777 69.1707 14.2844 68.704C14.8911 68.2373 15.7031 68.004 16.7204 68.004C17.7471 68.004 18.5637 68.2373 19.1704 68.704C19.7771 69.1707 20.0804 69.8147 20.0804 70.636C20.0804 71.0467 19.9964 71.4247 19.8284 71.77C19.6697 72.106 19.4411 72.3907 19.1424 72.624C18.8437 72.848 18.4937 72.9973 18.0924 73.072V72.834C18.5404 72.89 18.9277 73.0347 19.2544 73.268C19.5811 73.492 19.8377 73.7813 20.0244 74.136C20.2111 74.4907 20.3044 74.9013 20.3044 75.368C20.3044 76.236 19.9871 76.9127 19.3524 77.398C18.7271 77.8833 17.8497 78.126 16.7204 78.126ZM16.7204 76.978C17.4577 76.978 18.0131 76.838 18.3864 76.558C18.7597 76.2687 18.9464 75.8393 18.9464 75.27C18.9464 74.7007 18.7597 74.276 18.3864 73.996C18.0131 73.716 17.4577 73.576 16.7204 73.576C15.9924 73.576 15.4371 73.716 15.0544 73.996C14.6811 74.276 14.4944 74.7007 14.4944 75.27C14.4944 75.8393 14.6811 76.2687 15.0544 76.558C15.4371 76.838 15.9924 76.978 16.7204 76.978ZM16.7204 72.428C17.3457 72.428 17.8311 72.2833 18.1764 71.994C18.5311 71.6953 18.7084 71.2893 18.7084 70.776C18.7084 70.272 18.5311 69.8753 18.1764 69.586C17.8311 69.2967 17.3457 69.152 16.7204 69.152C16.0951 69.152 15.6097 69.2967 15.2644 69.586C14.9191 69.8753 14.7464 70.272 14.7464 70.776C14.7464 71.2893 14.9191 71.6953 15.2644 71.994C15.6097 72.2833 16.0951 72.428 16.7204 72.428ZM25.1149 78.126C24.3496 78.126 23.7056 77.93 23.1829 77.538C22.6603 77.146 22.2636 76.5767 21.9929 75.83C21.7223 75.074 21.5869 74.15 21.5869 73.058C21.5869 71.9473 21.7223 71.0187 21.9929 70.272C22.2636 69.5253 22.6603 68.9607 23.1829 68.578C23.7056 68.1953 24.3496 68.004 25.1149 68.004C25.8896 68.004 26.5383 68.1953 27.0609 68.578C27.5836 68.9513 27.9756 69.5113 28.2369 70.258C28.5076 71.0047 28.6429 71.9333 28.6429 73.044C28.6429 74.136 28.5076 75.06 28.2369 75.816C27.9663 76.572 27.5696 77.146 27.0469 77.538C26.5243 77.93 25.8803 78.126 25.1149 78.126ZM25.1149 76.922C25.8336 76.922 26.3609 76.6093 26.6969 75.984C27.0423 75.3587 27.2149 74.3787 27.2149 73.044C27.2149 71.7093 27.0423 70.7387 26.6969 70.132C26.3609 69.516 25.8336 69.208 25.1149 69.208C24.4056 69.208 23.8783 69.516 23.5329 70.132C23.1876 70.7387 23.0149 71.7093 23.0149 73.044C23.0149 74.3787 23.1876 75.3587 23.5329 75.984C23.8783 76.6093 24.4056 76.922 25.1149 76.922ZM33.5095 78.126C32.7441 78.126 32.1001 77.93 31.5775 77.538C31.0548 77.146 30.6581 76.5767 30.3875 75.83C30.1168 75.074 29.9815 74.15 29.9815 73.058C29.9815 71.9473 30.1168 71.0187 30.3875 70.272C30.6581 69.5253 31.0548 68.9607 31.5775 68.578C32.1001 68.1953 32.7441 68.004 33.5095 68.004C34.2841 68.004 34.9328 68.1953 35.4555 68.578C35.9781 68.9513 36.3701 69.5113 36.6315 70.258C36.9021 71.0047 37.0375 71.9333 37.0375 73.044C37.0375 74.136 36.9021 75.06 36.6315 75.816C36.3608 76.572 35.9641 77.146 35.4415 77.538C34.9188 77.93 34.2748 78.126 33.5095 78.126ZM33.5095 76.922C34.2281 76.922 34.7555 76.6093 35.0915 75.984C35.4368 75.3587 35.6095 74.3787 35.6095 73.044C35.6095 71.7093 35.4368 70.7387 35.0915 70.132C34.7555 69.516 34.2281 69.208 33.5095 69.208C32.8001 69.208 32.2728 69.516 31.9275 70.132C31.5821 70.7387 31.4095 71.7093 31.4095 73.044C31.4095 74.3787 31.5821 75.3587 31.9275 75.984C32.2728 76.6093 32.8001 76.922 33.5095 76.922Z" fill="black"/>
<path d="M5.26388 50.6191V49.4011H7.50388V41.9811H8.23188L5.75388 43.5211L5.16588 42.4431L7.92388 40.7491H8.94588V49.4011H11.0459V50.6191H5.26388ZM16.2204 50.7451C15.4551 50.7451 14.8111 50.5491 14.2884 50.1571C13.7657 49.7651 13.3691 49.1958 13.0984 48.4491C12.8277 47.6931 12.6924 46.7691 12.6924 45.6771C12.6924 44.5665 12.8277 43.6378 13.0984 42.8911C13.3691 42.1445 13.7657 41.5798 14.2884 41.1971C14.8111 40.8145 15.4551 40.6231 16.2204 40.6231C16.9951 40.6231 17.6437 40.8145 18.1664 41.1971C18.6891 41.5705 19.0811 42.1305 19.3424 42.8771C19.6131 43.6238 19.7484 44.5525 19.7484 45.6631C19.7484 46.7551 19.6131 47.6791 19.3424 48.4351C19.0717 49.1911 18.6751 49.7651 18.1524 50.1571C17.6297 50.5491 16.9857 50.7451 16.2204 50.7451ZM16.2204 49.5411C16.9391 49.5411 17.4664 49.2285 17.8024 48.6031C18.1477 47.9778 18.3204 46.9978 18.3204 45.6631C18.3204 44.3285 18.1477 43.3578 17.8024 42.7511C17.4664 42.1351 16.9391 41.8271 16.2204 41.8271C15.5111 41.8271 14.9837 42.1351 14.6384 42.7511C14.2931 43.3578 14.1204 44.3285 14.1204 45.6631C14.1204 46.9978 14.2931 47.9778 14.6384 48.6031C14.9837 49.2285 15.5111 49.5411 16.2204 49.5411ZM24.6149 50.7451C23.8496 50.7451 23.2056 50.5491 22.6829 50.1571C22.1603 49.7651 21.7636 49.1958 21.4929 48.4491C21.2223 47.6931 21.0869 46.7691 21.0869 45.6771C21.0869 44.5665 21.2223 43.6378 21.4929 42.8911C21.7636 42.1445 22.1603 41.5798 22.6829 41.1971C23.2056 40.8145 23.8496 40.6231 24.6149 40.6231C25.3896 40.6231 26.0383 40.8145 26.5609 41.1971C27.0836 41.5705 27.4756 42.1305 27.7369 42.8771C28.0076 43.6238 28.1429 44.5525 28.1429 45.6631C28.1429 46.7551 28.0076 47.6791 27.7369 48.4351C27.4663 49.1911 27.0696 49.7651 26.5469 50.1571C26.0243 50.5491 25.3803 50.7451 24.6149 50.7451ZM24.6149 49.5411C25.3336 49.5411 25.8609 49.2285 26.1969 48.6031C26.5423 47.9778 26.7149 46.9978 26.7149 45.6631C26.7149 44.3285 26.5423 43.3578 26.1969 42.7511C25.8609 42.1351 25.3336 41.8271 24.6149 41.8271C23.9056 41.8271 23.3783 42.1351 23.0329 42.7511C22.6876 43.3578 22.5149 44.3285 22.5149 45.6631C22.5149 46.9978 22.6876 47.9778 23.0329 48.6031C23.3783 49.2285 23.9056 49.5411 24.6149 49.5411ZM33.0095 50.7451C32.2441 50.7451 31.6001 50.5491 31.0775 50.1571C30.5548 49.7651 30.1581 49.1958 29.8875 48.4491C29.6168 47.6931 29.4815 46.7691 29.4815 45.6771C29.4815 44.5665 29.6168 43.6378 29.8875 42.8911C30.1581 42.1445 30.5548 41.5798 31.0775 41.1971C31.6001 40.8145 32.2441 40.6231 33.0095 40.6231C33.7841 40.6231 34.4328 40.8145 34.9555 41.1971C35.4781 41.5705 35.8701 42.1305 36.1315 42.8771C36.4021 43.6238 36.5375 44.5525 36.5375 45.6631C36.5375 46.7551 36.4021 47.6791 36.1315 48.4351C35.8608 49.1911 35.4641 49.7651 34.9415 50.1571C34.4188 50.5491 33.7748 50.7451 33.0095 50.7451ZM33.0095 49.5411C33.7281 49.5411 34.2555 49.2285 34.5915 48.6031C34.9368 47.9778 35.1095 46.9978 35.1095 45.6631C35.1095 44.3285 34.9368 43.3578 34.5915 42.7511C34.2555 42.1351 33.7281 41.8271 33.0095 41.8271C32.3001 41.8271 31.7728 42.1351 31.4275 42.7511C31.0821 43.3578 30.9095 44.3285 30.9095 45.6631C30.9095 46.9978 31.0821 47.9778 31.4275 48.6031C31.7728 49.2285 32.3001 49.5411 33.0095 49.5411Z" fill="black"/>
<rect x="41.75" y="209" width="28" height="16" rx="4" fill="#4ECB71"/>
<path d="M47.6457 221V213.584H44.6457V212.54H51.8817V213.584H48.8817V221H47.6457ZM56.3503 221.108C55.4303 221.108 54.6543 220.936 54.0223 220.592C53.3903 220.24 52.9103 219.74 52.5823 219.092C52.2623 218.444 52.1023 217.672 52.1023 216.776C52.1023 215.888 52.2663 215.12 52.5943 214.472C52.9223 213.816 53.3983 213.312 54.0223 212.96C54.6463 212.608 55.3943 212.432 56.2663 212.432C56.8663 212.432 57.4223 212.52 57.9343 212.696C58.4463 212.872 58.8743 213.124 59.2183 213.452L58.7743 214.424C58.3903 214.104 57.9983 213.876 57.5983 213.74C57.1983 213.596 56.7543 213.524 56.2663 213.524C55.3303 213.524 54.6183 213.808 54.1303 214.376C53.6423 214.936 53.3983 215.736 53.3983 216.776C53.3983 217.84 53.6463 218.648 54.1423 219.2C54.6463 219.752 55.3983 220.028 56.3983 220.028C57.0063 220.028 57.6103 219.928 58.2103 219.728V217.46H56.1463V216.524H59.2543V220.508C58.8943 220.684 58.4463 220.828 57.9103 220.94C57.3823 221.052 56.8623 221.108 56.3503 221.108ZM61.1676 221V212.54H66.6396V213.548H62.3676V216.2H66.3876V217.208H62.3676V219.992H66.6396V221H61.1676Z" fill="black"/>
<rect x="77.75" y="209" width="53" height="16" rx="4" fill="#FFD233"/>
<path d="M82.1481 221V212.54H83.3961V219.932H87.5841V221H82.1481ZM88.5292 213.788V212.528H89.9452V213.788H88.5292ZM88.6372 221V215.144H89.8492V221H88.6372ZM95.7311 223.16V220.04C95.5631 220.368 95.3071 220.628 94.9631 220.82C94.6191 221.012 94.2271 221.108 93.7871 221.108C93.2671 221.108 92.8151 220.988 92.4311 220.748C92.0471 220.5 91.7471 220.148 91.5311 219.692C91.3151 219.236 91.2071 218.696 91.2071 218.072C91.2071 217.448 91.3151 216.912 91.5311 216.464C91.7471 216.008 92.0471 215.656 92.4311 215.408C92.8231 215.16 93.2751 215.036 93.7871 215.036C94.2351 215.036 94.6311 215.14 94.9751 215.348C95.3271 215.548 95.5871 215.82 95.7551 216.164V215.144H96.9431V223.16H95.7311ZM94.0991 220.172C94.5951 220.172 94.9951 219.992 95.2991 219.632C95.6031 219.272 95.7551 218.752 95.7551 218.072C95.7551 217.392 95.6031 216.876 95.2991 216.524C94.9951 216.164 94.5951 215.984 94.0991 215.984C93.5951 215.984 93.1911 216.164 92.8871 216.524C92.5831 216.876 92.4311 217.392 92.4311 218.072C92.4311 218.752 92.5831 219.272 92.8871 219.632C93.1911 219.992 93.5951 220.172 94.0991 220.172ZM100.733 221.108C99.317 221.108 98.609 220.32 98.609 218.744V215.144H99.821V218.756C99.821 219.228 99.917 219.576 100.109 219.8C100.301 220.024 100.605 220.136 101.021 220.136C101.477 220.136 101.845 219.984 102.125 219.68C102.413 219.376 102.557 218.968 102.557 218.456V215.144H103.769V221H102.593V220.064C102.401 220.408 102.145 220.668 101.825 220.844C101.505 221.02 101.141 221.108 100.733 221.108ZM105.369 213.788V212.528H106.785V213.788H105.369ZM105.477 221V215.144H106.689V221H105.477ZM110.627 221.108C110.115 221.108 109.663 220.988 109.271 220.748C108.887 220.5 108.587 220.148 108.371 219.692C108.155 219.236 108.047 218.696 108.047 218.072C108.047 217.448 108.155 216.912 108.371 216.464C108.587 216.008 108.887 215.656 109.271 215.408C109.655 215.16 110.107 215.036 110.627 215.036C111.067 215.036 111.459 215.132 111.803 215.324C112.147 215.516 112.403 215.776 112.571 216.104V212.54H113.783V221H112.595V219.98C112.427 220.332 112.167 220.608 111.815 220.808C111.471 221.008 111.075 221.108 110.627 221.108ZM110.939 220.172C111.435 220.172 111.835 219.992 112.139 219.632C112.443 219.272 112.595 218.752 112.595 218.072C112.595 217.392 112.443 216.876 112.139 216.524C111.835 216.164 111.435 215.984 110.939 215.984C110.435 215.984 110.031 216.164 109.727 216.524C109.423 216.876 109.271 217.392 109.271 218.072C109.271 218.752 109.423 219.272 109.727 219.632C110.031 219.992 110.435 220.172 110.939 220.172ZM115.377 213.788V212.528H116.793V213.788H115.377ZM115.485 221V215.144H116.697V221H115.485ZM120.899 221.108C120.163 221.108 119.615 220.92 119.255 220.544C118.895 220.168 118.715 219.624 118.715 218.912V216.08H117.575V215.144H118.715V213.38H119.927V215.144H121.739V216.08H119.927V218.816C119.927 219.24 120.015 219.56 120.191 219.776C120.375 219.992 120.671 220.1 121.079 220.1C121.207 220.1 121.331 220.088 121.451 220.064C121.571 220.032 121.691 219.996 121.811 219.956L122.003 220.868C121.883 220.94 121.715 220.996 121.499 221.036C121.291 221.084 121.091 221.108 120.899 221.108ZM123.468 223.16L124.512 220.844L122.064 215.144H123.36L125.16 219.596L126.984 215.144H128.232L124.74 223.16H123.468Z" fill="black"/>
<rect x="138.75" y="209" width="65" height="16" rx="4" fill="#579BFF"/>
<path d="M144.47 221V213.584H141.47V212.54H148.706V213.584H145.706V221H144.47ZM153.174 221.108C152.254 221.108 151.478 220.936 150.846 220.592C150.214 220.24 149.734 219.74 149.406 219.092C149.086 218.444 148.926 217.672 148.926 216.776C148.926 215.888 149.09 215.12 149.418 214.472C149.746 213.816 150.222 213.312 150.846 212.96C151.47 212.608 152.218 212.432 153.09 212.432C153.69 212.432 154.246 212.52 154.758 212.696C155.27 212.872 155.698 213.124 156.042 213.452L155.598 214.424C155.214 214.104 154.822 213.876 154.422 213.74C154.022 213.596 153.578 213.524 153.09 213.524C152.154 213.524 151.442 213.808 150.954 214.376C150.466 214.936 150.222 215.736 150.222 216.776C150.222 217.84 150.47 218.648 150.966 219.2C151.47 219.752 152.222 220.028 153.222 220.028C153.83 220.028 154.434 219.928 155.034 219.728V217.46H152.97V216.524H156.078V220.508C155.718 220.684 155.27 220.828 154.734 220.94C154.206 221.052 153.686 221.108 153.174 221.108ZM157.992 221V212.54H163.464V213.548H159.192V216.2H163.212V217.208H159.192V219.992H163.464V221H157.992ZM168.211 221V212.54H171.739C172.619 212.54 173.299 212.736 173.779 213.128C174.267 213.512 174.511 214.052 174.511 214.748C174.511 215.204 174.391 215.596 174.151 215.924C173.911 216.252 173.583 216.492 173.167 216.644C173.655 216.772 174.035 217.008 174.307 217.352C174.579 217.696 174.715 218.132 174.715 218.66C174.715 219.412 174.463 219.992 173.959 220.4C173.463 220.8 172.771 221 171.883 221H168.211ZM169.411 216.236H171.547C172.715 216.236 173.299 215.78 173.299 214.868C173.299 213.956 172.715 213.5 171.547 213.5H169.411V216.236ZM169.411 220.04H171.739C172.915 220.04 173.503 219.564 173.503 218.612C173.503 217.668 172.915 217.196 171.739 217.196H169.411V220.04ZM178.802 221.108C178.21 221.108 177.698 220.984 177.266 220.736C176.834 220.488 176.498 220.14 176.258 219.692C176.026 219.236 175.91 218.696 175.91 218.072C175.91 217.448 176.026 216.912 176.258 216.464C176.498 216.008 176.834 215.656 177.266 215.408C177.698 215.16 178.21 215.036 178.802 215.036C179.378 215.036 179.882 215.16 180.314 215.408C180.746 215.656 181.082 216.008 181.322 216.464C181.562 216.912 181.682 217.448 181.682 218.072C181.682 218.696 181.562 219.236 181.322 219.692C181.082 220.14 180.746 220.488 180.314 220.736C179.882 220.984 179.378 221.108 178.802 221.108ZM178.802 220.172C179.298 220.172 179.698 219.992 180.002 219.632C180.306 219.272 180.458 218.752 180.458 218.072C180.458 217.392 180.306 216.876 180.002 216.524C179.698 216.164 179.298 215.984 178.802 215.984C178.298 215.984 177.894 216.164 177.59 216.524C177.286 216.876 177.134 217.392 177.134 218.072C177.134 218.752 177.286 219.272 177.59 219.632C177.894 219.992 178.298 220.172 178.802 220.172ZM183.043 221V215.144H184.219V216.116C184.419 215.764 184.691 215.496 185.035 215.312C185.387 215.128 185.779 215.036 186.211 215.036C187.595 215.036 188.287 215.82 188.287 217.388V221H187.075V217.46C187.075 216.956 186.975 216.588 186.775 216.356C186.583 216.124 186.279 216.008 185.863 216.008C185.375 216.008 184.983 216.164 184.687 216.476C184.399 216.78 184.255 217.184 184.255 217.688V221H183.043ZM192.045 221.108C190.629 221.108 189.921 220.32 189.921 218.744V215.144H191.133V218.756C191.133 219.228 191.229 219.576 191.421 219.8C191.613 220.024 191.917 220.136 192.333 220.136C192.789 220.136 193.157 219.984 193.437 219.68C193.725 219.376 193.869 218.968 193.869 218.456V215.144H195.081V221H193.905V220.064C193.713 220.408 193.457 220.668 193.137 220.844C192.817 221.02 192.453 221.108 192.045 221.108ZM198.842 221.108C198.362 221.108 197.914 221.048 197.498 220.928C197.082 220.8 196.734 220.624 196.454 220.4L196.802 219.584C197.098 219.792 197.422 219.952 197.774 220.064C198.134 220.176 198.494 220.232 198.854 220.232C199.278 220.232 199.598 220.156 199.814 220.004C200.03 219.852 200.138 219.648 200.138 219.392C200.138 219.184 200.066 219.024 199.922 218.912C199.778 218.792 199.562 218.7 199.274 218.636L198.134 218.408C197.126 218.2 196.622 217.68 196.622 216.848C196.622 216.296 196.842 215.856 197.282 215.528C197.722 215.2 198.298 215.036 199.01 215.036C199.418 215.036 199.806 215.096 200.174 215.216C200.55 215.336 200.862 215.516 201.11 215.756L200.762 216.572C200.522 216.364 200.246 216.204 199.934 216.092C199.622 215.98 199.314 215.924 199.01 215.924C198.594 215.924 198.278 216.004 198.062 216.164C197.846 216.316 197.738 216.524 197.738 216.788C197.738 217.188 198.002 217.444 198.53 217.556L199.67 217.784C200.19 217.888 200.582 218.064 200.846 218.312C201.118 218.56 201.254 218.896 201.254 219.32C201.254 219.88 201.034 220.32 200.594 220.64C200.154 220.952 199.57 221.108 198.842 221.108Z" fill="black"/>
<rect x="211.75" y="209" width="47" height="16" rx="4" fill="#FF9A62"/>
<path d="M218.652 221.108C217.988 221.108 217.38 221.024 216.828 220.856C216.276 220.68 215.808 220.436 215.424 220.124L215.82 219.14C216.22 219.444 216.648 219.672 217.104 219.824C217.56 219.976 218.076 220.052 218.652 220.052C219.332 220.052 219.832 219.932 220.152 219.692C220.48 219.444 220.644 219.124 220.644 218.732C220.644 218.412 220.528 218.16 220.296 217.976C220.064 217.784 219.676 217.632 219.132 217.52L217.848 217.256C217.088 217.096 216.52 216.832 216.144 216.464C215.776 216.096 215.592 215.6 215.592 214.976C215.592 214.472 215.724 214.028 215.988 213.644C216.26 213.26 216.636 212.964 217.116 212.756C217.596 212.54 218.148 212.432 218.772 212.432C219.348 212.432 219.88 212.52 220.368 212.696C220.864 212.864 221.284 213.112 221.628 213.44L221.22 214.388C220.54 213.788 219.72 213.488 218.76 213.488C218.168 213.488 217.696 213.62 217.344 213.884C217 214.148 216.828 214.5 216.828 214.94C216.828 215.276 216.936 215.544 217.152 215.744C217.368 215.944 217.728 216.096 218.232 216.2L219.504 216.464C220.304 216.632 220.9 216.892 221.292 217.244C221.684 217.588 221.88 218.056 221.88 218.648C221.88 219.144 221.748 219.576 221.484 219.944C221.22 220.312 220.848 220.6 220.368 220.808C219.888 221.008 219.316 221.108 218.652 221.108ZM225.625 221.108C224.889 221.108 224.341 220.92 223.981 220.544C223.621 220.168 223.441 219.624 223.441 218.912V216.08H222.301V215.144H223.441V213.38H224.653V215.144H226.465V216.08H224.653V218.816C224.653 219.24 224.741 219.56 224.917 219.776C225.101 219.992 225.397 220.1 225.805 220.1C225.933 220.1 226.057 220.088 226.177 220.064C226.297 220.032 226.417 219.996 226.537 219.956L226.729 220.868C226.609 220.94 226.441 220.996 226.225 221.036C226.017 221.084 225.817 221.108 225.625 221.108ZM229.384 221.108C228.976 221.108 228.612 221.028 228.292 220.868C227.972 220.708 227.716 220.492 227.524 220.22C227.34 219.948 227.248 219.64 227.248 219.296C227.248 218.864 227.356 218.524 227.572 218.276C227.796 218.028 228.16 217.848 228.664 217.736C229.176 217.624 229.864 217.568 230.728 217.568H231.136V217.256C231.136 216.8 231.04 216.472 230.848 216.272C230.656 216.072 230.34 215.972 229.9 215.972C229.564 215.972 229.228 216.024 228.892 216.128C228.556 216.224 228.212 216.38 227.86 216.596L227.488 215.744C227.792 215.528 228.172 215.356 228.628 215.228C229.084 215.1 229.52 215.036 229.936 215.036C230.736 215.036 231.328 215.228 231.712 215.612C232.096 215.988 232.288 216.58 232.288 217.388V221H231.148V220.028C231.004 220.364 230.78 220.628 230.476 220.82C230.172 221.012 229.808 221.108 229.384 221.108ZM229.624 220.244C230.056 220.244 230.416 220.092 230.704 219.788C230.992 219.484 231.136 219.1 231.136 218.636V218.312H230.74C230.156 218.312 229.696 218.34 229.36 218.396C229.032 218.452 228.796 218.548 228.652 218.684C228.516 218.812 228.448 218.992 228.448 219.224C228.448 219.528 228.552 219.776 228.76 219.968C228.968 220.152 229.256 220.244 229.624 220.244ZM233.957 221V212.54H235.169V217.7H235.193L237.737 215.144H239.237L236.429 217.964L239.453 221H237.941L235.193 218.324H235.169V221H233.957ZM240.037 213.788V212.528H241.453V213.788H240.037ZM240.145 221V215.144H241.357V221H240.145ZM243.063 221V215.144H244.239V216.116C244.439 215.764 244.711 215.496 245.055 215.312C245.407 215.128 245.799 215.036 246.231 215.036C247.615 215.036 248.307 215.82 248.307 217.388V221H247.095V217.46C247.095 216.956 246.995 216.588 246.795 216.356C246.603 216.124 246.299 216.008 245.883 216.008C245.395 216.008 245.003 216.164 244.707 216.476C244.419 216.78 244.275 217.184 244.275 217.688V221H243.063ZM252.629 223.268C252.101 223.268 251.609 223.204 251.153 223.076C250.697 222.956 250.293 222.764 249.941 222.5L250.313 221.636C250.665 221.876 251.025 222.052 251.393 222.164C251.761 222.276 252.145 222.332 252.545 222.332C253.665 222.332 254.225 221.772 254.225 220.652V219.728C254.057 220.08 253.793 220.356 253.433 220.556C253.081 220.756 252.685 220.856 252.245 220.856C251.717 220.856 251.257 220.736 250.865 220.496C250.473 220.248 250.169 219.908 249.953 219.476C249.737 219.036 249.629 218.524 249.629 217.94C249.629 217.364 249.737 216.86 249.953 216.428C250.169 215.988 250.473 215.648 250.865 215.408C251.257 215.16 251.717 215.036 252.245 215.036C252.693 215.036 253.093 215.136 253.445 215.336C253.797 215.536 254.057 215.812 254.225 216.164V215.144H255.401V220.508C255.401 221.428 255.165 222.116 254.693 222.572C254.221 223.036 253.533 223.268 252.629 223.268ZM252.533 219.908C253.045 219.908 253.453 219.732 253.757 219.38C254.061 219.028 254.213 218.548 254.213 217.94C254.213 217.332 254.061 216.856 253.757 216.512C253.453 216.16 253.045 215.984 252.533 215.984C252.021 215.984 251.613 216.16 251.309 216.512C251.005 216.856 250.853 217.332 250.853 217.94C250.853 218.548 251.005 219.028 251.309 219.38C251.613 219.732 252.021 219.908 252.533 219.908Z" fill="black"/>
<rect x="266.75" y="209" width="51" height="16" rx="4" fill="#D99BFF"/>
<path d="M271.884 221V213.584H268.884V212.54H276.12V213.584H273.12V221H271.884ZM276.098 221V215.144H277.274V216.188C277.578 215.492 278.21 215.104 279.17 215.024L279.566 215L279.65 216.032L278.918 216.104C277.854 216.208 277.322 216.756 277.322 217.748V221H276.098ZM283.241 221.108C282.281 221.108 281.525 220.84 280.973 220.304C280.421 219.76 280.145 219.02 280.145 218.084C280.145 217.484 280.265 216.956 280.505 216.5C280.753 216.036 281.093 215.676 281.525 215.42C281.957 215.164 282.453 215.036 283.013 215.036C283.821 215.036 284.457 215.296 284.921 215.816C285.385 216.328 285.617 217.036 285.617 217.94V218.348H281.321C281.409 219.564 282.053 220.172 283.253 220.172C283.589 220.172 283.917 220.12 284.237 220.016C284.565 219.912 284.873 219.74 285.161 219.5L285.521 220.34C285.257 220.58 284.917 220.768 284.501 220.904C284.085 221.04 283.665 221.108 283.241 221.108ZM283.061 215.888C282.557 215.888 282.157 216.044 281.861 216.356C281.565 216.668 281.385 217.084 281.321 217.604H284.597C284.573 217.06 284.429 216.64 284.165 216.344C283.901 216.04 283.533 215.888 283.061 215.888ZM288.81 221.108C288.402 221.108 288.038 221.028 287.718 220.868C287.398 220.708 287.142 220.492 286.95 220.22C286.766 219.948 286.674 219.64 286.674 219.296C286.674 218.864 286.782 218.524 286.998 218.276C287.222 218.028 287.586 217.848 288.09 217.736C288.602 217.624 289.29 217.568 290.154 217.568H290.562V217.256C290.562 216.8 290.466 216.472 290.274 216.272C290.082 216.072 289.766 215.972 289.326 215.972C288.99 215.972 288.654 216.024 288.318 216.128C287.982 216.224 287.638 216.38 287.286 216.596L286.914 215.744C287.218 215.528 287.598 215.356 288.054 215.228C288.51 215.1 288.946 215.036 289.362 215.036C290.162 215.036 290.754 215.228 291.138 215.612C291.522 215.988 291.714 216.58 291.714 217.388V221H290.574V220.028C290.43 220.364 290.206 220.628 289.902 220.82C289.598 221.012 289.234 221.108 288.81 221.108ZM289.05 220.244C289.482 220.244 289.842 220.092 290.13 219.788C290.418 219.484 290.562 219.1 290.562 218.636V218.312H290.166C289.582 218.312 289.122 218.34 288.786 218.396C288.458 218.452 288.222 218.548 288.078 218.684C287.942 218.812 287.874 218.992 287.874 219.224C287.874 219.528 287.978 219.776 288.186 219.968C288.394 220.152 288.682 220.244 289.05 220.244ZM295.435 221.108C294.955 221.108 294.507 221.048 294.091 220.928C293.675 220.8 293.327 220.624 293.047 220.4L293.395 219.584C293.691 219.792 294.015 219.952 294.367 220.064C294.727 220.176 295.087 220.232 295.447 220.232C295.871 220.232 296.191 220.156 296.407 220.004C296.623 219.852 296.731 219.648 296.731 219.392C296.731 219.184 296.659 219.024 296.515 218.912C296.371 218.792 296.155 218.7 295.867 218.636L294.727 218.408C293.719 218.2 293.215 217.68 293.215 216.848C293.215 216.296 293.435 215.856 293.875 215.528C294.315 215.2 294.891 215.036 295.603 215.036C296.011 215.036 296.399 215.096 296.767 215.216C297.143 215.336 297.455 215.516 297.703 215.756L297.355 216.572C297.115 216.364 296.839 216.204 296.527 216.092C296.215 215.98 295.907 215.924 295.603 215.924C295.187 215.924 294.871 216.004 294.655 216.164C294.439 216.316 294.331 216.524 294.331 216.788C294.331 217.188 294.595 217.444 295.123 217.556L296.263 217.784C296.783 217.888 297.175 218.064 297.439 218.312C297.711 218.56 297.847 218.896 297.847 219.32C297.847 219.88 297.627 220.32 297.187 220.64C296.747 220.952 296.163 221.108 295.435 221.108ZM301.284 221.108C299.868 221.108 299.16 220.32 299.16 218.744V215.144H300.372V218.756C300.372 219.228 300.468 219.576 300.66 219.8C300.852 220.024 301.156 220.136 301.572 220.136C302.028 220.136 302.396 219.984 302.676 219.68C302.964 219.376 303.108 218.968 303.108 218.456V215.144H304.32V221H303.144V220.064C302.952 220.408 302.696 220.668 302.376 220.844C302.056 221.02 301.692 221.108 301.284 221.108ZM306.028 221V215.144H307.204V216.188C307.508 215.492 308.14 215.104 309.1 215.024L309.496 215L309.58 216.032L308.848 216.104C307.784 216.208 307.252 216.756 307.252 217.748V221H306.028ZM311.468 223.16L312.512 220.844L310.064 215.144H311.36L313.16 219.596L314.984 215.144H316.232L312.74 223.16H311.468Z" fill="black"/>
<rect x="281.75" y="5" width="36" height="16" rx="4" fill="#FFC583"/>
<path d="M288.103 17V9.584H285.103V8.54H292.339V9.584H289.339V17H288.103ZM295.065 17.108C294.105 17.108 293.349 16.84 292.797 16.304C292.245 15.76 291.969 15.02 291.969 14.084C291.969 13.484 292.089 12.956 292.329 12.5C292.577 12.036 292.917 11.676 293.349 11.42C293.781 11.164 294.277 11.036 294.837 11.036C295.645 11.036 296.281 11.296 296.745 11.816C297.209 12.328 297.441 13.036 297.441 13.94V14.348H293.145C293.233 15.564 293.877 16.172 295.077 16.172C295.413 16.172 295.741 16.12 296.061 16.016C296.389 15.912 296.697 15.74 296.985 15.5L297.345 16.34C297.081 16.58 296.741 16.768 296.325 16.904C295.909 17.04 295.489 17.108 295.065 17.108ZM294.885 11.888C294.381 11.888 293.981 12.044 293.685 12.356C293.389 12.668 293.209 13.084 293.145 13.604H296.421C296.397 13.06 296.253 12.64 295.989 12.344C295.725 12.04 295.357 11.888 294.885 11.888ZM300.634 17.108C300.226 17.108 299.862 17.028 299.542 16.868C299.222 16.708 298.966 16.492 298.774 16.22C298.59 15.948 298.498 15.64 298.498 15.296C298.498 14.864 298.606 14.524 298.822 14.276C299.046 14.028 299.41 13.848 299.914 13.736C300.426 13.624 301.114 13.568 301.978 13.568H302.386V13.256C302.386 12.8 302.29 12.472 302.098 12.272C301.906 12.072 301.59 11.972 301.15 11.972C300.814 11.972 300.478 12.024 300.142 12.128C299.806 12.224 299.462 12.38 299.11 12.596L298.738 11.744C299.042 11.528 299.422 11.356 299.878 11.228C300.334 11.1 300.77 11.036 301.186 11.036C301.986 11.036 302.578 11.228 302.962 11.612C303.346 11.988 303.538 12.58 303.538 13.388V17H302.398V16.028C302.254 16.364 302.03 16.628 301.726 16.82C301.422 17.012 301.058 17.108 300.634 17.108ZM300.874 16.244C301.306 16.244 301.666 16.092 301.954 15.788C302.242 15.484 302.386 15.1 302.386 14.636V14.312H301.99C301.406 14.312 300.946 14.34 300.61 14.396C300.282 14.452 300.046 14.548 299.902 14.684C299.766 14.812 299.698 14.992 299.698 15.224C299.698 15.528 299.802 15.776 300.01 15.968C300.218 16.152 300.506 16.244 300.874 16.244ZM305.231 17V11.144H306.407V12.092C306.583 11.756 306.827 11.496 307.139 11.312C307.451 11.128 307.815 11.036 308.231 11.036C309.127 11.036 309.707 11.428 309.971 12.212C310.155 11.844 310.419 11.556 310.763 11.348C311.107 11.14 311.499 11.036 311.939 11.036C313.251 11.036 313.907 11.82 313.907 13.388V17H312.695V13.448C312.695 12.952 312.607 12.588 312.431 12.356C312.263 12.124 311.983 12.008 311.591 12.008C311.151 12.008 310.803 12.164 310.547 12.476C310.291 12.78 310.163 13.196 310.163 13.724V17H308.951V13.448C308.951 12.952 308.867 12.588 308.699 12.356C308.531 12.124 308.251 12.008 307.859 12.008C307.419 12.008 307.071 12.164 306.815 12.476C306.567 12.78 306.443 13.196 306.443 13.724V17H305.231Z" fill="black"/>
<rect x="68.75" y="5" width="73" height="16" rx="4" fill="#FFFDE8"/>
<path d="M77.5774 17.108C76.9134 17.108 76.3054 17.024 75.7534 16.856C75.2014 16.68 74.7334 16.436 74.3494 16.124L74.7454 15.14C75.1454 15.444 75.5734 15.672 76.0294 15.824C76.4854 15.976 77.0014 16.052 77.5774 16.052C78.2574 16.052 78.7574 15.932 79.0774 15.692C79.4054 15.444 79.5694 15.124 79.5694 14.732C79.5694 14.412 79.4534 14.16 79.2214 13.976C78.9894 13.784 78.6014 13.632 78.0574 13.52L76.7734 13.256C76.0134 13.096 75.4454 12.832 75.0694 12.464C74.7014 12.096 74.5174 11.6 74.5174 10.976C74.5174 10.472 74.6494 10.028 74.9134 9.644C75.1854 9.26 75.5614 8.964 76.0414 8.756C76.5214 8.54 77.0734 8.432 77.6974 8.432C78.2734 8.432 78.8054 8.52 79.2934 8.696C79.7894 8.864 80.2094 9.112 80.5534 9.44L80.1454 10.388C79.4654 9.788 78.6454 9.488 77.6854 9.488C77.0934 9.488 76.6214 9.62 76.2694 9.884C75.9254 10.148 75.7534 10.5 75.7534 10.94C75.7534 11.276 75.8614 11.544 76.0774 11.744C76.2934 11.944 76.6534 12.096 77.1574 12.2L78.4294 12.464C79.2294 12.632 79.8254 12.892 80.2174 13.244C80.6094 13.588 80.8054 14.056 80.8054 14.648C80.8054 15.144 80.6734 15.576 80.4094 15.944C80.1454 16.312 79.7734 16.6 79.2934 16.808C78.8134 17.008 78.2414 17.108 77.5774 17.108ZM83.5923 17L81.3603 11.144H82.6083L84.1803 15.584L85.8003 11.144H86.7363L88.3323 15.608L89.9283 11.144H91.1163L88.8843 17H87.7803L86.2323 12.812L84.6963 17H83.5923ZM93.9115 17.108C93.5035 17.108 93.1395 17.028 92.8195 16.868C92.4995 16.708 92.2435 16.492 92.0515 16.22C91.8675 15.948 91.7755 15.64 91.7755 15.296C91.7755 14.864 91.8835 14.524 92.0995 14.276C92.3235 14.028 92.6875 13.848 93.1915 13.736C93.7035 13.624 94.3915 13.568 95.2555 13.568H95.6635V13.256C95.6635 12.8 95.5675 12.472 95.3755 12.272C95.1835 12.072 94.8675 11.972 94.4275 11.972C94.0915 11.972 93.7555 12.024 93.4195 12.128C93.0835 12.224 92.7395 12.38 92.3875 12.596L92.0155 11.744C92.3195 11.528 92.6995 11.356 93.1555 11.228C93.6115 11.1 94.0475 11.036 94.4635 11.036C95.2635 11.036 95.8555 11.228 96.2395 11.612C96.6235 11.988 96.8155 12.58 96.8155 13.388V17H95.6755V16.028C95.5315 16.364 95.3075 16.628 95.0035 16.82C94.6995 17.012 94.3355 17.108 93.9115 17.108ZM94.1515 16.244C94.5835 16.244 94.9435 16.092 95.2315 15.788C95.5195 15.484 95.6635 15.1 95.6635 14.636V14.312H95.2675C94.6835 14.312 94.2235 14.34 93.8875 14.396C93.5595 14.452 93.3235 14.548 93.1795 14.684C93.0435 14.812 92.9755 14.992 92.9755 15.224C92.9755 15.528 93.0795 15.776 93.2875 15.968C93.4955 16.152 93.7835 16.244 94.1515 16.244ZM98.4848 19.16V11.144H99.6728V12.14C99.8408 11.804 100.097 11.536 100.441 11.336C100.785 11.136 101.181 11.036 101.629 11.036C102.149 11.036 102.601 11.16 102.985 11.408C103.377 11.656 103.677 12.008 103.885 12.464C104.101 12.912 104.209 13.448 104.209 14.072C104.209 14.696 104.101 15.236 103.885 15.692C103.677 16.148 103.377 16.5 102.985 16.748C102.601 16.988 102.149 17.108 101.629 17.108C101.197 17.108 100.809 17.016 100.465 16.832C100.129 16.64 99.8728 16.38 99.6968 16.052V19.16H98.4848ZM101.329 16.172C101.833 16.172 102.233 15.992 102.529 15.632C102.833 15.272 102.985 14.752 102.985 14.072C102.985 13.392 102.833 12.876 102.529 12.524C102.233 12.164 101.833 11.984 101.329 11.984C100.825 11.984 100.421 12.164 100.117 12.524C99.8208 12.876 99.6728 13.392 99.6728 14.072C99.6728 14.752 99.8208 15.272 100.117 15.632C100.421 15.992 100.825 16.172 101.329 16.172ZM105.743 17V16.076L108.563 13.052C108.955 12.628 109.235 12.244 109.403 11.9C109.579 11.556 109.667 11.208 109.667 10.856C109.667 9.944 109.131 9.488 108.059 9.488C107.243 9.488 106.511 9.796 105.863 10.412L105.419 9.464C105.739 9.152 106.147 8.904 106.643 8.72C107.139 8.528 107.655 8.432 108.191 8.432C109.063 8.432 109.731 8.632 110.195 9.032C110.667 9.432 110.903 10.004 110.903 10.748C110.903 11.252 110.779 11.744 110.531 12.224C110.291 12.704 109.911 13.216 109.391 13.76L107.303 15.956H111.239V17H105.743ZM112.902 17V8.54H118.374V9.548H114.102V12.2H118.122V13.208H114.102V15.992H118.374V17H112.902ZM121.638 17.108C121.23 17.108 120.866 17.028 120.546 16.868C120.226 16.708 119.97 16.492 119.778 16.22C119.594 15.948 119.502 15.64 119.502 15.296C119.502 14.864 119.61 14.524 119.826 14.276C120.05 14.028 120.414 13.848 120.918 13.736C121.43 13.624 122.118 13.568 122.982 13.568H123.39V13.256C123.39 12.8 123.294 12.472 123.102 12.272C122.91 12.072 122.594 11.972 122.154 11.972C121.818 11.972 121.482 12.024 121.146 12.128C120.81 12.224 120.466 12.38 120.114 12.596L119.742 11.744C120.046 11.528 120.426 11.356 120.882 11.228C121.338 11.1 121.774 11.036 122.19 11.036C122.99 11.036 123.582 11.228 123.966 11.612C124.35 11.988 124.542 12.58 124.542 13.388V17H123.402V16.028C123.258 16.364 123.034 16.628 122.73 16.82C122.426 17.012 122.062 17.108 121.638 17.108ZM121.878 16.244C122.31 16.244 122.67 16.092 122.958 15.788C123.246 15.484 123.39 15.1 123.39 14.636V14.312H122.994C122.41 14.312 121.95 14.34 121.614 14.396C121.286 14.452 121.05 14.548 120.906 14.684C120.77 14.812 120.702 14.992 120.702 15.224C120.702 15.528 120.806 15.776 121.014 15.968C121.222 16.152 121.51 16.244 121.878 16.244ZM126.211 17V11.144H127.387V12.188C127.691 11.492 128.323 11.104 129.283 11.024L129.679 11L129.763 12.032L129.031 12.104C127.967 12.208 127.435 12.756 127.435 13.748V17H126.211ZM130.688 17V11.144H131.864V12.116C132.064 11.764 132.336 11.496 132.68 11.312C133.032 11.128 133.424 11.036 133.856 11.036C135.24 11.036 135.932 11.82 135.932 13.388V17H134.72V13.46C134.72 12.956 134.62 12.588 134.42 12.356C134.228 12.124 133.924 12.008 133.508 12.008C133.02 12.008 132.628 12.164 132.332 12.476C132.044 12.78 131.9 13.184 131.9 13.688V17H130.688Z" fill="#383241"/>
<rect x="149.75" y="5" width="64" height="16" rx="4" fill="#89DADF"/>
<path d="M152.98 17V8.54H158.356V9.548H154.228V12.248H158.104V13.256H154.228V17H152.98ZM161.13 17.108C160.722 17.108 160.358 17.028 160.038 16.868C159.718 16.708 159.462 16.492 159.27 16.22C159.086 15.948 158.994 15.64 158.994 15.296C158.994 14.864 159.102 14.524 159.318 14.276C159.542 14.028 159.906 13.848 160.41 13.736C160.922 13.624 161.61 13.568 162.474 13.568H162.882V13.256C162.882 12.8 162.786 12.472 162.594 12.272C162.402 12.072 162.086 11.972 161.646 11.972C161.31 11.972 160.974 12.024 160.638 12.128C160.302 12.224 159.958 12.38 159.606 12.596L159.234 11.744C159.538 11.528 159.918 11.356 160.374 11.228C160.83 11.1 161.266 11.036 161.682 11.036C162.482 11.036 163.074 11.228 163.458 11.612C163.842 11.988 164.034 12.58 164.034 13.388V17H162.894V16.028C162.75 16.364 162.526 16.628 162.222 16.82C161.918 17.012 161.554 17.108 161.13 17.108ZM161.37 16.244C161.802 16.244 162.162 16.092 162.45 15.788C162.738 15.484 162.882 15.1 162.882 14.636V14.312H162.486C161.902 14.312 161.442 14.34 161.106 14.396C160.778 14.452 160.542 14.548 160.398 14.684C160.262 14.812 160.194 14.992 160.194 15.224C160.194 15.528 160.298 15.776 160.506 15.968C160.714 16.152 161.002 16.244 161.37 16.244ZM165.704 17V11.144H166.88V12.188C167.184 11.492 167.816 11.104 168.776 11.024L169.172 11L169.256 12.032L168.524 12.104C167.46 12.208 166.928 12.756 166.928 13.748V17H165.704ZM170.204 17V11.144H171.38V12.092C171.556 11.756 171.8 11.496 172.112 11.312C172.424 11.128 172.788 11.036 173.204 11.036C174.1 11.036 174.68 11.428 174.944 12.212C175.128 11.844 175.392 11.556 175.736 11.348C176.08 11.14 176.472 11.036 176.912 11.036C178.224 11.036 178.88 11.82 178.88 13.388V17H177.668V13.448C177.668 12.952 177.58 12.588 177.404 12.356C177.236 12.124 176.956 12.008 176.564 12.008C176.124 12.008 175.776 12.164 175.52 12.476C175.264 12.78 175.136 13.196 175.136 13.724V17H173.924V13.448C173.924 12.952 173.84 12.588 173.672 12.356C173.504 12.124 173.224 12.008 172.832 12.008C172.392 12.008 172.044 12.164 171.788 12.476C171.54 12.78 171.416 13.196 171.416 13.724V17H170.204ZM180.743 17V16.076L183.563 13.052C183.955 12.628 184.235 12.244 184.403 11.9C184.579 11.556 184.667 11.208 184.667 10.856C184.667 9.944 184.131 9.488 183.059 9.488C182.243 9.488 181.511 9.796 180.863 10.412L180.419 9.464C180.739 9.152 181.147 8.904 181.643 8.72C182.139 8.528 182.655 8.432 183.191 8.432C184.063 8.432 184.731 8.632 185.195 9.032C185.667 9.432 185.903 10.004 185.903 10.748C185.903 11.252 185.779 11.744 185.531 12.224C185.291 12.704 184.911 13.216 184.391 13.76L182.303 15.956H186.239V17H180.743ZM187.902 17V8.54H193.374V9.548H189.102V12.2H193.122V13.208H189.102V15.992H193.374V17H187.902ZM196.638 17.108C196.23 17.108 195.866 17.028 195.546 16.868C195.226 16.708 194.97 16.492 194.778 16.22C194.594 15.948 194.502 15.64 194.502 15.296C194.502 14.864 194.61 14.524 194.826 14.276C195.05 14.028 195.414 13.848 195.918 13.736C196.43 13.624 197.118 13.568 197.982 13.568H198.39V13.256C198.39 12.8 198.294 12.472 198.102 12.272C197.91 12.072 197.594 11.972 197.154 11.972C196.818 11.972 196.482 12.024 196.146 12.128C195.81 12.224 195.466 12.38 195.114 12.596L194.742 11.744C195.046 11.528 195.426 11.356 195.882 11.228C196.338 11.1 196.774 11.036 197.19 11.036C197.99 11.036 198.582 11.228 198.966 11.612C199.35 11.988 199.542 12.58 199.542 13.388V17H198.402V16.028C198.258 16.364 198.034 16.628 197.73 16.82C197.426 17.012 197.062 17.108 196.638 17.108ZM196.878 16.244C197.31 16.244 197.67 16.092 197.958 15.788C198.246 15.484 198.39 15.1 198.39 14.636V14.312H197.994C197.41 14.312 196.95 14.34 196.614 14.396C196.286 14.452 196.05 14.548 195.906 14.684C195.77 14.812 195.702 14.992 195.702 15.224C195.702 15.528 195.806 15.776 196.014 15.968C196.222 16.152 196.51 16.244 196.878 16.244ZM201.211 17V11.144H202.387V12.188C202.691 11.492 203.323 11.104 204.283 11.024L204.679 11L204.763 12.032L204.031 12.104C202.967 12.208 202.435 12.756 202.435 13.748V17H201.211ZM205.688 17V11.144H206.864V12.116C207.064 11.764 207.336 11.496 207.68 11.312C208.032 11.128 208.424 11.036 208.856 11.036C210.24 11.036 210.932 11.82 210.932 13.388V17H209.72V13.46C209.72 12.956 209.62 12.588 209.42 12.356C209.228 12.124 208.924 12.008 208.508 12.008C208.02 12.008 207.628 12.164 207.332 12.476C207.044 12.78 206.9 13.184 206.9 13.688V17H205.688Z" fill="black"/>
<rect x="221.75" y="5" width="52" height="16" rx="4" fill="#E4A951"/>
<path d="M224.562 17L228.33 8.54H229.362L233.142 17H231.87L230.982 14.936H226.698L225.822 17H224.562ZM228.834 9.92L227.142 13.928H230.562L228.858 9.92H228.834ZM234.01 9.788V8.528H235.426V9.788H234.01ZM234.118 17V11.144H235.33V17H234.118ZM237.036 17V11.144H238.212V12.188C238.516 11.492 239.148 11.104 240.108 11.024L240.504 11L240.588 12.032L239.856 12.104C238.792 12.208 238.26 12.756 238.26 13.748V17H237.036ZM243.662 17.108C243.15 17.108 242.698 16.988 242.306 16.748C241.922 16.5 241.622 16.148 241.406 15.692C241.19 15.236 241.082 14.696 241.082 14.072C241.082 13.448 241.19 12.912 241.406 12.464C241.622 12.008 241.922 11.656 242.306 11.408C242.69 11.16 243.142 11.036 243.662 11.036C244.102 11.036 244.494 11.132 244.838 11.324C245.182 11.516 245.438 11.776 245.606 12.104V8.54H246.818V17H245.63V15.98C245.462 16.332 245.202 16.608 244.85 16.808C244.506 17.008 244.11 17.108 243.662 17.108ZM243.974 16.172C244.47 16.172 244.87 15.992 245.174 15.632C245.478 15.272 245.63 14.752 245.63 14.072C245.63 13.392 245.478 12.876 245.174 12.524C244.87 12.164 244.47 11.984 243.974 11.984C243.47 11.984 243.066 12.164 242.762 12.524C242.458 12.876 242.306 13.392 242.306 14.072C242.306 14.752 242.458 15.272 242.762 15.632C243.066 15.992 243.47 16.172 243.974 16.172ZM248.52 17V11.144H249.696V12.188C250 11.492 250.632 11.104 251.592 11.024L251.988 11L252.072 12.032L251.34 12.104C250.276 12.208 249.744 12.756 249.744 13.748V17H248.52ZM255.459 17.108C254.867 17.108 254.355 16.984 253.923 16.736C253.491 16.488 253.155 16.14 252.915 15.692C252.683 15.236 252.567 14.696 252.567 14.072C252.567 13.448 252.683 12.912 252.915 12.464C253.155 12.008 253.491 11.656 253.923 11.408C254.355 11.16 254.867 11.036 255.459 11.036C256.035 11.036 256.539 11.16 256.971 11.408C257.403 11.656 257.739 12.008 257.979 12.464C258.219 12.912 258.339 13.448 258.339 14.072C258.339 14.696 258.219 15.236 257.979 15.692C257.739 16.14 257.403 16.488 256.971 16.736C256.539 16.984 256.035 17.108 255.459 17.108ZM255.459 16.172C255.955 16.172 256.355 15.992 256.659 15.632C256.963 15.272 257.115 14.752 257.115 14.072C257.115 13.392 256.963 12.876 256.659 12.524C256.355 12.164 255.955 11.984 255.459 11.984C254.955 11.984 254.551 12.164 254.247 12.524C253.943 12.876 253.791 13.392 253.791 14.072C253.791 14.752 253.943 15.272 254.247 15.632C254.551 15.992 254.955 16.172 255.459 16.172ZM259.7 19.16V11.144H260.888V12.14C261.056 11.804 261.312 11.536 261.656 11.336C262 11.136 262.396 11.036 262.844 11.036C263.364 11.036 263.816 11.16 264.2 11.408C264.592 11.656 264.892 12.008 265.1 12.464C265.316 12.912 265.424 13.448 265.424 14.072C265.424 14.696 265.316 15.236 265.1 15.692C264.892 16.148 264.592 16.5 264.2 16.748C263.816 16.988 263.364 17.108 262.844 17.108C262.412 17.108 262.024 17.016 261.68 16.832C261.344 16.64 261.088 16.38 260.912 16.052V19.16H259.7ZM262.544 16.172C263.048 16.172 263.448 15.992 263.744 15.632C264.048 15.272 264.2 14.752 264.2 14.072C264.2 13.392 264.048 12.876 263.744 12.524C263.448 12.164 263.048 11.984 262.544 11.984C262.04 11.984 261.636 12.164 261.332 12.524C261.036 12.876 260.888 13.392 260.888 14.072C260.888 14.752 261.036 15.272 261.332 15.632C261.636 15.992 262.04 16.172 262.544 16.172ZM268.842 17.108C268.362 17.108 267.914 17.048 267.498 16.928C267.082 16.8 266.734 16.624 266.454 16.4L266.802 15.584C267.098 15.792 267.422 15.952 267.774 16.064C268.134 16.176 268.494 16.232 268.854 16.232C269.278 16.232 269.598 16.156 269.814 16.004C270.03 15.852 270.138 15.648 270.138 15.392C270.138 15.184 270.066 15.024 269.922 14.912C269.778 14.792 269.562 14.7 269.274 14.636L268.134 14.408C267.126 14.2 266.622 13.68 266.622 12.848C266.622 12.296 266.842 11.856 267.282 11.528C267.722 11.2 268.298 11.036 269.01 11.036C269.418 11.036 269.806 11.096 270.174 11.216C270.55 11.336 270.862 11.516 271.11 11.756L270.762 12.572C270.522 12.364 270.246 12.204 269.934 12.092C269.622 11.98 269.314 11.924 269.01 11.924C268.594 11.924 268.278 12.004 268.062 12.164C267.846 12.316 267.738 12.524 267.738 12.788C267.738 13.188 268.002 13.444 268.53 13.556L269.67 13.784C270.19 13.888 270.582 14.064 270.846 14.312C271.118 14.56 271.254 14.896 271.254 15.32C271.254 15.88 271.034 16.32 270.594 16.64C270.154 16.952 269.57 17.108 268.842 17.108Z" fill="black"/>
</svg>
